<svg width="79" height="19" viewBox="0 0 79 19" fill="none" xmlns="http://www.w3.org/2000/svg">
<path d="M10.0402 12.5345C10.0402 13.2012 9.87349 13.8278 9.54016 14.4145C9.22016 15.0012 8.74016 15.4945 8.10016 15.8945C7.47349 16.2945 6.72682 16.5345 5.86016 16.6145V18.2345H4.56016V16.6145C3.30682 16.4945 2.29349 16.1012 1.52016 15.4345C0.746823 14.7678 0.360156 13.8878 0.360156 12.7945H2.80016C2.84016 13.3145 3.00682 13.7478 3.30016 14.0945C3.59349 14.4278 4.01349 14.6412 4.56016 14.7345V10.3345C3.66682 10.1078 2.94016 9.88117 2.38016 9.65451C1.82016 9.41451 1.34016 9.04117 0.940156 8.53451C0.55349 8.02784 0.360156 7.33451 0.360156 6.45451C0.360156 5.34784 0.746823 4.43451 1.52016 3.71451C2.29349 2.98117 3.30682 2.55451 4.56016 2.43451V0.814506H5.86016V2.43451C7.03349 2.54117 7.97349 2.91451 8.68016 3.55451C9.40016 4.18117 9.80682 5.04784 9.90016 6.15451H7.46016C7.42016 5.74117 7.26016 5.37451 6.98016 5.05451C6.70016 4.72117 6.32682 4.49451 5.86016 4.37451V8.69451C6.75349 8.90784 7.48016 9.13451 8.04016 9.37451C8.60016 9.60117 9.07349 9.96784 9.46016 10.4745C9.84682 10.9678 10.0402 11.6545 10.0402 12.5345ZM2.68016 6.33451C2.68016 6.88117 2.84016 7.30784 3.16016 7.61451C3.49349 7.92117 3.96016 8.16784 4.56016 8.35451V4.31451C3.98682 4.38117 3.52682 4.58784 3.18016 4.93451C2.84682 5.28117 2.68016 5.74784 2.68016 6.33451ZM5.86016 14.7345C6.44682 14.6412 6.90682 14.4078 7.24016 14.0345C7.57349 13.6478 7.74016 13.1878 7.74016 12.6545C7.74016 12.1212 7.57349 11.7078 7.24016 11.4145C6.92016 11.1078 6.46016 10.8612 5.86016 10.6745V14.7345ZM13.328 5.51451C13.408 4.27451 13.8813 3.30784 14.748 2.61451C15.628 1.92117 16.748 1.57451 18.108 1.57451C19.0413 1.57451 19.848 1.74117 20.528 2.07451C21.208 2.40784 21.7213 2.86117 22.068 3.43451C22.4146 4.00784 22.588 4.65451 22.588 5.37451C22.588 6.20117 22.368 6.90784 21.928 7.49451C21.488 8.08117 20.9613 8.47451 20.348 8.67451V8.75451C21.1346 8.99451 21.748 9.43451 22.188 10.0745C22.628 10.7012 22.848 11.5078 22.848 12.4945C22.848 13.2812 22.668 13.9812 22.308 14.5945C21.948 15.2078 21.4146 15.6945 20.708 16.0545C20.0013 16.4012 19.1546 16.5745 18.168 16.5745C16.728 16.5745 15.5413 16.2078 14.608 15.4745C13.688 14.7278 13.1946 13.6612 13.128 12.2745H15.328C15.3813 12.9812 15.6546 13.5612 16.148 14.0145C16.6413 14.4545 17.308 14.6745 18.148 14.6745C18.9613 14.6745 19.588 14.4545 20.028 14.0145C20.468 13.5612 20.688 12.9812 20.688 12.2745C20.688 11.3412 20.388 10.6812 19.788 10.2945C19.2013 9.89451 18.2946 9.69451 17.068 9.69451H16.548V7.81451H17.088C18.168 7.80117 18.988 7.62117 19.548 7.27451C20.1213 6.92784 20.408 6.38117 20.408 5.63451C20.408 4.99451 20.2013 4.48784 19.788 4.11451C19.3746 3.72784 18.788 3.53451 18.028 3.53451C17.2813 3.53451 16.7013 3.72784 16.288 4.11451C15.8746 4.48784 15.628 4.95451 15.548 5.51451H13.328ZM25.243 9.01451C25.243 6.70784 25.6296 4.90784 26.403 3.61451C27.1896 2.30784 28.5363 1.65451 30.443 1.65451C32.3496 1.65451 33.6896 2.30784 34.463 3.61451C35.2496 4.90784 35.643 6.70784 35.643 9.01451C35.643 11.3478 35.2496 13.1745 34.463 14.4945C33.6896 15.8012 32.3496 16.4545 30.443 16.4545C28.5363 16.4545 27.1896 15.8012 26.403 14.4945C25.6296 13.1745 25.243 11.3478 25.243 9.01451ZM33.403 9.01451C33.403 7.93451 33.3296 7.02117 33.183 6.27451C33.0496 5.52784 32.7696 4.92117 32.343 4.45451C31.9163 3.97451 31.283 3.73451 30.443 3.73451C29.603 3.73451 28.9696 3.97451 28.543 4.45451C28.1163 4.92117 27.8296 5.52784 27.683 6.27451C27.5496 7.02117 27.483 7.93451 27.483 9.01451C27.483 10.1345 27.5496 11.0745 27.683 11.8345C27.8163 12.5945 28.0963 13.2078 28.523 13.6745C28.963 14.1412 29.603 14.3745 30.443 14.3745C31.283 14.3745 31.9163 14.1412 32.343 13.6745C32.783 13.2078 33.0696 12.5945 33.203 11.8345C33.3363 11.0745 33.403 10.1345 33.403 9.01451ZM38.0555 9.01451C38.0555 6.70784 38.4421 4.90784 39.2155 3.61451C40.0021 2.30784 41.3488 1.65451 43.2555 1.65451C45.1621 1.65451 46.5021 2.30784 47.2755 3.61451C48.0621 4.90784 48.4555 6.70784 48.4555 9.01451C48.4555 11.3478 48.0621 13.1745 47.2755 14.4945C46.5021 15.8012 45.1621 16.4545 43.2555 16.4545C41.3488 16.4545 40.0021 15.8012 39.2155 14.4945C38.4421 13.1745 38.0555 11.3478 38.0555 9.01451ZM46.2155 9.01451C46.2155 7.93451 46.1421 7.02117 45.9955 6.27451C45.8621 5.52784 45.5821 4.92117 45.1555 4.45451C44.7288 3.97451 44.0955 3.73451 43.2555 3.73451C42.4155 3.73451 41.7821 3.97451 41.3555 4.45451C40.9288 4.92117 40.6421 5.52784 40.4955 6.27451C40.3621 7.02117 40.2955 7.93451 40.2955 9.01451C40.2955 10.1345 40.3621 11.0745 40.4955 11.8345C40.6288 12.5945 40.9088 13.2078 41.3355 13.6745C41.7755 14.1412 42.4155 14.3745 43.2555 14.3745C44.0955 14.3745 44.7288 14.1412 45.1555 13.6745C45.5955 13.2078 45.8821 12.5945 46.0155 11.8345C46.1488 11.0745 46.2155 10.1345 46.2155 9.01451ZM52.088 16.6345C51.6746 16.6345 51.328 16.4945 51.048 16.2145C50.768 15.9345 50.628 15.5878 50.628 15.1745C50.628 14.7612 50.768 14.4145 51.048 14.1345C51.328 13.8545 51.6746 13.7145 52.088 13.7145C52.488 13.7145 52.828 13.8545 53.108 14.1345C53.388 14.4145 53.528 14.7612 53.528 15.1745C53.528 15.5878 53.388 15.9345 53.108 16.2145C52.828 16.4945 52.488 16.6345 52.088 16.6345ZM55.6922 9.01451C55.6922 6.70784 56.0789 4.90784 56.8522 3.61451C57.6389 2.30784 58.9855 1.65451 60.8922 1.65451C62.7989 1.65451 64.1389 2.30784 64.9122 3.61451C65.6989 4.90784 66.0922 6.70784 66.0922 9.01451C66.0922 11.3478 65.6989 13.1745 64.9122 14.4945C64.1389 15.8012 62.7989 16.4545 60.8922 16.4545C58.9855 16.4545 57.6389 15.8012 56.8522 14.4945C56.0789 13.1745 55.6922 11.3478 55.6922 9.01451ZM63.8522 9.01451C63.8522 7.93451 63.7789 7.02117 63.6322 6.27451C63.4989 5.52784 63.2189 4.92117 62.7922 4.45451C62.3655 3.97451 61.7322 3.73451 60.8922 3.73451C60.0522 3.73451 59.4189 3.97451 58.9922 4.45451C58.5655 4.92117 58.2789 5.52784 58.1322 6.27451C57.9989 7.02117 57.9322 7.93451 57.9322 9.01451C57.9322 10.1345 57.9989 11.0745 58.1322 11.8345C58.2655 12.5945 58.5455 13.2078 58.9722 13.6745C59.4122 14.1412 60.0522 14.3745 60.8922 14.3745C61.7322 14.3745 62.3655 14.1412 62.7922 13.6745C63.2322 13.2078 63.5189 12.5945 63.6522 11.8345C63.7855 11.0745 63.8522 10.1345 63.8522 9.01451ZM68.5047 9.01451C68.5047 6.70784 68.8914 4.90784 69.6647 3.61451C70.4514 2.30784 71.798 1.65451 73.7047 1.65451C75.6114 1.65451 76.9514 2.30784 77.7247 3.61451C78.5114 4.90784 78.9047 6.70784 78.9047 9.01451C78.9047 11.3478 78.5114 13.1745 77.7247 14.4945C76.9514 15.8012 75.6114 16.4545 73.7047 16.4545C71.798 16.4545 70.4514 15.8012 69.6647 14.4945C68.8914 13.1745 68.5047 11.3478 68.5047 9.01451ZM76.6647 9.01451C76.6647 7.93451 76.5914 7.02117 76.4447 6.27451C76.3114 5.52784 76.0314 4.92117 75.6047 4.45451C75.178 3.97451 74.5447 3.73451 73.7047 3.73451C72.8647 3.73451 72.2314 3.97451 71.8047 4.45451C71.378 4.92117 71.0914 5.52784 70.9447 6.27451C70.8114 7.02117 70.7447 7.93451 70.7447 9.01451C70.7447 10.1345 70.8114 11.0745 70.9447 11.8345C71.078 12.5945 71.358 13.2078 71.7847 13.6745C72.2247 14.1412 72.8647 14.3745 73.7047 14.3745C74.5447 14.3745 75.178 14.1412 75.6047 13.6745C76.0447 13.2078 76.3314 12.5945 76.4647 11.8345C76.598 11.0745 76.6647 10.1345 76.6647 9.01451Z" fill="#FB0F00"/>
</svg>
