<svg width="302" height="63" viewBox="0 0 302 63" fill="none" xmlns="http://www.w3.org/2000/svg">
<path d="M12.2031 7.25024V30.0002H7.53125V7.25024H12.2031ZM19.2031 7.25024V10.9221H0.640625V7.25024H19.2031ZM25 16.7815V30.0002H20.5V13.094H24.7344L25 16.7815ZM30.0937 12.9846L30.0156 17.1565C29.7969 17.1252 29.5312 17.0992 29.2187 17.0784C28.9167 17.0471 28.6406 17.0315 28.3906 17.0315C27.7552 17.0315 27.2031 17.1148 26.7344 17.2815C26.276 17.4377 25.8906 17.6721 25.5781 17.9846C25.276 18.2971 25.0469 18.6773 24.8906 19.1252C24.7448 19.5732 24.6615 20.0836 24.6406 20.6565L23.7344 20.3752C23.7344 19.2815 23.8437 18.2763 24.0625 17.3596C24.2812 16.4325 24.599 15.6252 25.0156 14.9377C25.4427 14.2502 25.9635 13.719 26.5781 13.344C27.1927 12.969 27.8958 12.7815 28.6875 12.7815C28.9375 12.7815 29.1927 12.8023 29.4531 12.844C29.7135 12.8752 29.9271 12.9221 30.0937 12.9846ZM42.2187 25.9534V13.094H46.7187V30.0002H42.4844L42.2187 25.9534ZM42.7187 22.4846L44.0469 22.4534C44.0469 23.5784 43.9167 24.6252 43.6562 25.594C43.3958 26.5523 43.0052 27.3857 42.4844 28.094C41.9635 28.7919 41.3073 29.3388 40.5156 29.7346C39.724 30.12 38.7917 30.3127 37.7187 30.3127C36.8958 30.3127 36.1354 30.1982 35.4375 29.969C34.75 29.7294 34.1562 29.3596 33.6562 28.8596C33.1667 28.3492 32.7812 27.6982 32.5 26.9065C32.2292 26.1044 32.0937 25.1409 32.0937 24.0159V13.094H36.5937V24.0471C36.5937 24.5471 36.651 24.969 36.7656 25.3127C36.8906 25.6565 37.0625 25.9377 37.2812 26.1565C37.5 26.3752 37.7552 26.5315 38.0469 26.6252C38.349 26.719 38.6823 26.7659 39.0469 26.7659C39.974 26.7659 40.7031 26.5784 41.2344 26.2034C41.776 25.8284 42.1562 25.318 42.375 24.6721C42.6042 24.0159 42.7187 23.2867 42.7187 22.4846ZM59.2969 25.3284C59.2969 25.0055 59.2031 24.7138 59.0156 24.4534C58.8281 24.193 58.4792 23.9534 57.9687 23.7346C57.4687 23.5055 56.7448 23.2971 55.7969 23.1096C54.9427 22.9221 54.1458 22.6877 53.4062 22.4065C52.6771 22.1148 52.0417 21.7659 51.5 21.3596C50.9687 20.9534 50.5521 20.4742 50.25 19.9221C49.9479 19.3596 49.7969 18.719 49.7969 18.0002C49.7969 17.2919 49.9479 16.6252 50.25 16.0002C50.5625 15.3752 51.0052 14.8232 51.5781 14.344C52.1615 13.8544 52.8698 13.4742 53.7031 13.2034C54.5469 12.9221 55.4948 12.7815 56.5469 12.7815C58.0156 12.7815 59.276 13.0159 60.3281 13.4846C61.3906 13.9534 62.2031 14.5992 62.7656 15.4221C63.3385 16.2346 63.625 17.1617 63.625 18.2034H59.125C59.125 17.7659 59.0312 17.3752 58.8437 17.0315C58.6667 16.6773 58.3854 16.4013 58 16.2034C57.625 15.995 57.1354 15.8909 56.5312 15.8909C56.0312 15.8909 55.599 15.9794 55.2344 16.1565C54.8698 16.3232 54.5885 16.5523 54.3906 16.844C54.2031 17.1252 54.1094 17.4377 54.1094 17.7815C54.1094 18.0419 54.1615 18.2763 54.2656 18.4846C54.3802 18.6825 54.5625 18.8648 54.8125 19.0315C55.0625 19.1982 55.3854 19.3544 55.7812 19.5002C56.1875 19.6357 56.6875 19.7607 57.2812 19.8752C58.5 20.1252 59.5885 20.4534 60.5469 20.8596C61.5052 21.2555 62.2656 21.7971 62.8281 22.4846C63.3906 23.1617 63.6719 24.0523 63.6719 25.1565C63.6719 25.9065 63.5052 26.594 63.1719 27.219C62.8385 27.844 62.3594 28.3909 61.7344 28.8596C61.1094 29.318 60.3594 29.6773 59.4844 29.9377C58.6198 30.1877 57.6458 30.3127 56.5625 30.3127C54.9896 30.3127 53.6562 30.0315 52.5625 29.469C51.4792 28.9065 50.6562 28.193 50.0937 27.3284C49.5417 26.4534 49.2656 25.5575 49.2656 24.6409H53.5312C53.5521 25.2555 53.7083 25.7502 54 26.1252C54.3021 26.5002 54.6823 26.7711 55.1406 26.9377C55.6094 27.1044 56.1146 27.1877 56.6562 27.1877C57.2396 27.1877 57.724 27.1096 58.1094 26.9534C58.4948 26.7867 58.7865 26.568 58.9844 26.2971C59.1927 26.0159 59.2969 25.693 59.2969 25.3284ZM74.875 13.094V16.2815H65.0312V13.094H74.875ZM67.4687 8.92212H71.9687V24.9065C71.9687 25.3961 72.0312 25.7711 72.1562 26.0315C72.2917 26.2919 72.4896 26.4742 72.75 26.5784C73.0104 26.6721 73.3385 26.719 73.7344 26.719C74.0156 26.719 74.2656 26.7086 74.4844 26.6877C74.7135 26.6565 74.9062 26.6252 75.0625 26.594L75.0781 29.9065C74.6927 30.0315 74.276 30.1305 73.8281 30.2034C73.3802 30.2763 72.8854 30.3127 72.3437 30.3127C71.3542 30.3127 70.4896 30.1513 69.75 29.8284C69.0208 29.495 68.4583 28.9638 68.0625 28.2346C67.6667 27.5055 67.4687 26.5471 67.4687 25.3596V8.92212ZM85.2187 30.3127C83.9062 30.3127 82.7292 30.1044 81.6875 29.6877C80.6458 29.2607 79.7604 28.6721 79.0312 27.9221C78.3125 27.1721 77.7604 26.3023 77.375 25.3127C76.9896 24.3127 76.7969 23.2502 76.7969 22.1252V21.5002C76.7969 20.219 76.9792 19.0471 77.3437 17.9846C77.7083 16.9221 78.2292 16.0002 78.9062 15.219C79.5937 14.4377 80.4271 13.8388 81.4062 13.4221C82.3854 12.995 83.4896 12.7815 84.7187 12.7815C85.9167 12.7815 86.9792 12.9794 87.9062 13.3752C88.8333 13.7711 89.6094 14.3336 90.2344 15.0627C90.8698 15.7919 91.349 16.6669 91.6719 17.6877C91.9948 18.6982 92.1562 19.8232 92.1562 21.0627V22.9377H78.7187V19.9377H87.7344V19.594C87.7344 18.969 87.6198 18.4117 87.3906 17.9221C87.1719 17.4221 86.8385 17.0263 86.3906 16.7346C85.9427 16.443 85.3698 16.2971 84.6719 16.2971C84.0781 16.2971 83.5677 16.4273 83.1406 16.6877C82.7135 16.9482 82.3646 17.3127 82.0937 17.7815C81.8333 18.2502 81.6354 18.8023 81.5 19.4377C81.375 20.0627 81.3125 20.7502 81.3125 21.5002V22.1252C81.3125 22.8023 81.4062 23.4273 81.5937 24.0002C81.7917 24.5732 82.0677 25.068 82.4219 25.4846C82.7865 25.9013 83.224 26.2242 83.7344 26.4534C84.2552 26.6825 84.8437 26.7971 85.5 26.7971C86.3125 26.7971 87.0677 26.6409 87.7656 26.3284C88.474 26.0055 89.0833 25.5211 89.5937 24.8752L91.7812 27.2502C91.4271 27.7607 90.9427 28.2502 90.3281 28.719C89.724 29.1877 88.9948 29.5732 88.1406 29.8752C87.2865 30.1669 86.3125 30.3127 85.2187 30.3127ZM104.703 26.3127V6.00024H109.234V30.0002H105.156L104.703 26.3127ZM94.0156 21.7502V21.4221C94.0156 20.1305 94.1615 18.9586 94.4531 17.9065C94.7448 16.844 95.1719 15.9325 95.7344 15.1721C96.2969 14.4117 96.9896 13.8232 97.8125 13.4065C98.6354 12.9898 99.5729 12.7815 100.625 12.7815C101.615 12.7815 102.479 12.9898 103.219 13.4065C103.969 13.8232 104.604 14.4169 105.125 15.1877C105.656 15.9482 106.083 16.8492 106.406 17.8909C106.729 18.9221 106.964 20.0523 107.109 21.2815V22.0002C106.964 23.1773 106.729 24.2711 106.406 25.2815C106.083 26.2919 105.656 27.1773 105.125 27.9377C104.604 28.6877 103.969 29.2711 103.219 29.6877C102.469 30.1044 101.594 30.3127 100.594 30.3127C99.5417 30.3127 98.6042 30.0992 97.7812 29.6721C96.9687 29.245 96.2812 28.6461 95.7187 27.8752C95.1667 27.1044 94.7448 26.1982 94.4531 25.1565C94.1615 24.1148 94.0156 22.9794 94.0156 21.7502ZM98.5156 21.4221V21.7502C98.5156 22.4482 98.5677 23.0992 98.6719 23.7034C98.7865 24.3075 98.9687 24.844 99.2187 25.3127C99.4792 25.7711 99.8125 26.1305 100.219 26.3909C100.635 26.6409 101.141 26.7659 101.734 26.7659C102.505 26.7659 103.141 26.594 103.641 26.2502C104.141 25.8961 104.521 25.4117 104.781 24.7971C105.052 24.1825 105.208 23.4742 105.25 22.6721V20.6252C105.219 19.969 105.125 19.3805 104.969 18.8596C104.823 18.3284 104.604 17.8752 104.312 17.5002C104.031 17.1252 103.677 16.8336 103.25 16.6252C102.833 16.4169 102.339 16.3127 101.766 16.3127C101.182 16.3127 100.682 16.4482 100.266 16.719C99.849 16.9794 99.5104 17.3388 99.25 17.7971C99 18.2555 98.8125 18.7971 98.6875 19.4221C98.5729 20.0367 98.5156 20.7034 98.5156 21.4221ZM129.906 20.0159H124.062L124.031 16.7971H128.937C129.802 16.7971 130.51 16.6877 131.062 16.469C131.615 16.2398 132.026 15.9117 132.297 15.4846C132.578 15.0471 132.719 14.5159 132.719 13.8909C132.719 13.1825 132.583 12.6096 132.312 12.1721C132.052 11.7346 131.641 11.4169 131.078 11.219C130.526 11.0211 129.812 10.9221 128.937 10.9221H125.687V30.0002H121V7.25024H128.937C130.26 7.25024 131.443 7.37524 132.484 7.62524C133.536 7.87524 134.427 8.25545 135.156 8.76587C135.885 9.27629 136.443 9.92212 136.828 10.7034C137.214 11.4742 137.406 12.3909 137.406 13.4534C137.406 14.3909 137.193 15.2555 136.766 16.0471C136.349 16.8388 135.687 17.4846 134.781 17.9846C133.885 18.4846 132.714 18.7607 131.266 18.8127L129.906 20.0159ZM129.703 30.0002H122.781L124.609 26.344H129.703C130.526 26.344 131.198 26.2138 131.719 25.9534C132.24 25.6825 132.625 25.318 132.875 24.8596C133.125 24.4013 133.25 23.8752 133.25 23.2815C133.25 22.6148 133.135 22.0367 132.906 21.5471C132.687 21.0575 132.333 20.6825 131.844 20.4221C131.354 20.1513 130.708 20.0159 129.906 20.0159H125.391L125.422 16.7971H131.047L132.125 18.0627C133.51 18.0419 134.625 18.2867 135.469 18.7971C136.323 19.2971 136.943 19.9482 137.328 20.7502C137.724 21.5523 137.922 22.4117 137.922 23.3284C137.922 24.7867 137.604 26.0159 136.969 27.0159C136.333 28.0055 135.401 28.7502 134.172 29.2502C132.953 29.7502 131.464 30.0002 129.703 30.0002ZM146.172 28.094L150.656 13.094H155.484L148.687 32.5471C148.542 32.9742 148.344 33.4325 148.094 33.9221C147.854 34.4117 147.526 34.8752 147.109 35.3127C146.703 35.7607 146.187 36.1252 145.562 36.4065C144.948 36.6877 144.193 36.8284 143.297 36.8284C142.87 36.8284 142.521 36.8023 142.25 36.7502C141.979 36.6982 141.656 36.6252 141.281 36.5315V33.2346C141.396 33.2346 141.516 33.2346 141.641 33.2346C141.766 33.245 141.885 33.2502 142 33.2502C142.594 33.2502 143.078 33.1825 143.453 33.0471C143.828 32.9117 144.13 32.7034 144.359 32.4221C144.589 32.1513 144.771 31.7971 144.906 31.3596L146.172 28.094ZM144.297 13.094L147.969 25.344L148.609 30.1096L145.547 30.4377L139.469 13.094H144.297ZM169.297 19.6409L165.703 18.7815L167 7.25024H179.781V10.8909H170.703L170.141 15.9377C170.443 15.7607 170.901 15.5732 171.516 15.3752C172.13 15.1669 172.818 15.0627 173.578 15.0627C174.682 15.0627 175.661 15.2346 176.516 15.5784C177.37 15.9221 178.094 16.4221 178.687 17.0784C179.292 17.7346 179.75 18.5367 180.062 19.4846C180.375 20.4325 180.531 21.5055 180.531 22.7034C180.531 23.7138 180.375 24.6773 180.062 25.594C179.75 26.5002 179.276 27.3127 178.641 28.0315C178.005 28.7398 177.208 29.2971 176.25 29.7034C175.292 30.1096 174.156 30.3127 172.844 30.3127C171.865 30.3127 170.917 30.1669 170 29.8752C169.094 29.5836 168.276 29.1513 167.547 28.5784C166.828 28.0055 166.25 27.3127 165.812 26.5002C165.385 25.6773 165.161 24.7398 165.141 23.6877H169.609C169.672 24.3336 169.839 24.8909 170.109 25.3596C170.391 25.818 170.76 26.1721 171.219 26.4221C171.677 26.6721 172.214 26.7971 172.828 26.7971C173.401 26.7971 173.891 26.6877 174.297 26.469C174.703 26.2502 175.031 25.9482 175.281 25.5627C175.531 25.1669 175.714 24.7086 175.828 24.1877C175.953 23.6565 176.016 23.0836 176.016 22.469C176.016 21.8544 175.943 21.2971 175.797 20.7971C175.651 20.2971 175.427 19.8648 175.125 19.5002C174.823 19.1357 174.437 18.8544 173.969 18.6565C173.51 18.4586 172.974 18.3596 172.359 18.3596C171.526 18.3596 170.88 18.4898 170.422 18.7502C169.974 19.0107 169.599 19.3075 169.297 19.6409ZM198.75 16.6252V20.5627C198.75 22.2711 198.568 23.745 198.203 24.9846C197.839 26.2138 197.312 27.2242 196.625 28.0159C195.948 28.7971 195.141 29.3752 194.203 29.7502C193.266 30.1252 192.224 30.3127 191.078 30.3127C190.161 30.3127 189.307 30.1982 188.516 29.969C187.724 29.7294 187.01 29.3596 186.375 28.8596C185.75 28.3596 185.208 27.7294 184.75 26.969C184.302 26.1982 183.958 25.2815 183.719 24.219C183.479 23.1565 183.359 21.9377 183.359 20.5627V16.6252C183.359 14.9169 183.542 13.4534 183.906 12.2346C184.281 11.0055 184.807 10.0002 185.484 9.21899C186.172 8.43774 186.984 7.86483 187.922 7.50024C188.859 7.12524 189.901 6.93774 191.047 6.93774C191.964 6.93774 192.812 7.05754 193.594 7.29712C194.385 7.52629 195.099 7.88566 195.734 8.37524C196.37 8.86483 196.911 9.49504 197.359 10.2659C197.807 11.0263 198.151 11.9377 198.391 13.0002C198.63 14.0523 198.75 15.2607 198.75 16.6252ZM194.234 21.1565V16.0159C194.234 15.193 194.187 14.4742 194.094 13.8596C194.01 13.245 193.88 12.7242 193.703 12.2971C193.526 11.8596 193.307 11.5055 193.047 11.2346C192.786 10.9638 192.49 10.7659 192.156 10.6409C191.823 10.5159 191.453 10.4534 191.047 10.4534C190.536 10.4534 190.083 10.5523 189.687 10.7502C189.302 10.9482 188.974 11.2659 188.703 11.7034C188.432 12.1305 188.224 12.7034 188.078 13.4221C187.943 14.1305 187.875 14.995 187.875 16.0159V21.1565C187.875 21.9794 187.917 22.7034 188 23.3284C188.094 23.9534 188.229 24.4898 188.406 24.9377C188.594 25.3752 188.812 25.7346 189.062 26.0159C189.323 26.2867 189.62 26.4846 189.953 26.6096C190.297 26.7346 190.672 26.7971 191.078 26.7971C191.578 26.7971 192.021 26.6982 192.406 26.5002C192.802 26.2919 193.135 25.969 193.406 25.5315C193.687 25.0836 193.896 24.5002 194.031 23.7815C194.167 23.0627 194.234 22.1877 194.234 21.1565ZM217.125 16.6252V20.5627C217.125 22.2711 216.943 23.745 216.578 24.9846C216.214 26.2138 215.687 27.2242 215 28.0159C214.323 28.7971 213.516 29.3752 212.578 29.7502C211.641 30.1252 210.599 30.3127 209.453 30.3127C208.536 30.3127 207.682 30.1982 206.891 29.969C206.099 29.7294 205.385 29.3596 204.75 28.8596C204.125 28.3596 203.583 27.7294 203.125 26.969C202.677 26.1982 202.333 25.2815 202.094 24.219C201.854 23.1565 201.734 21.9377 201.734 20.5627V16.6252C201.734 14.9169 201.917 13.4534 202.281 12.2346C202.656 11.0055 203.182 10.0002 203.859 9.21899C204.547 8.43774 205.359 7.86483 206.297 7.50024C207.234 7.12524 208.276 6.93774 209.422 6.93774C210.339 6.93774 211.187 7.05754 211.969 7.29712C212.76 7.52629 213.474 7.88566 214.109 8.37524C214.745 8.86483 215.286 9.49504 215.734 10.2659C216.182 11.0263 216.526 11.9377 216.766 13.0002C217.005 14.0523 217.125 15.2607 217.125 16.6252ZM212.609 21.1565V16.0159C212.609 15.193 212.562 14.4742 212.469 13.8596C212.385 13.245 212.255 12.7242 212.078 12.2971C211.901 11.8596 211.682 11.5055 211.422 11.2346C211.161 10.9638 210.865 10.7659 210.531 10.6409C210.198 10.5159 209.828 10.4534 209.422 10.4534C208.911 10.4534 208.458 10.5523 208.062 10.7502C207.677 10.9482 207.349 11.2659 207.078 11.7034C206.807 12.1305 206.599 12.7034 206.453 13.4221C206.318 14.1305 206.25 14.995 206.25 16.0159V21.1565C206.25 21.9794 206.292 22.7034 206.375 23.3284C206.469 23.9534 206.604 24.4898 206.781 24.9377C206.969 25.3752 207.187 25.7346 207.437 26.0159C207.698 26.2867 207.995 26.4846 208.328 26.6096C208.672 26.7346 209.047 26.7971 209.453 26.7971C209.953 26.7971 210.396 26.6982 210.781 26.5002C211.177 26.2919 211.51 25.969 211.781 25.5315C212.062 25.0836 212.271 24.5002 212.406 23.7815C212.542 23.0627 212.609 22.1877 212.609 21.1565ZM235.094 17.3284V21.2502H219.5V17.3284H235.094ZM229.437 11.1565V27.719H225.172V11.1565H229.437Z" fill="#2D0160"/>
<path d="M8.32812 57.1721V59.0002H2.60156V57.1721H8.32812ZM3.35937 47.6252V59.0002H1.01562V47.6252H3.35937ZM13.4219 59.1565C12.7656 59.1565 12.1771 59.0523 11.6562 58.844C11.1354 58.6304 10.6927 58.3362 10.3281 57.9612C9.96875 57.5862 9.69271 57.1513 9.5 56.6565C9.30729 56.1565 9.21094 55.6252 9.21094 55.0627V54.7502C9.21094 54.1096 9.30208 53.5237 9.48437 52.9924C9.66667 52.4612 9.92708 52.0002 10.2656 51.6096C10.6094 51.219 11.026 50.9195 11.5156 50.7112C12.0052 50.4976 12.5573 50.3909 13.1719 50.3909C13.7708 50.3909 14.3021 50.4898 14.7656 50.6877C15.2292 50.8857 15.6172 51.1669 15.9297 51.5315C16.2474 51.8961 16.487 52.3336 16.6484 52.844C16.8099 53.3492 16.8906 53.9117 16.8906 54.5315V55.469H10.1719V53.969H14.6797V53.7971C14.6797 53.4846 14.6224 53.206 14.5078 52.9612C14.3984 52.7112 14.2318 52.5133 14.0078 52.3674C13.7839 52.2216 13.4974 52.1487 13.1484 52.1487C12.8516 52.1487 12.5964 52.2138 12.3828 52.344C12.1693 52.4742 11.9948 52.6565 11.8594 52.8909C11.7292 53.1252 11.6302 53.4013 11.5625 53.719C11.5 54.0315 11.4687 54.3752 11.4687 54.7502V55.0627C11.4687 55.4013 11.5156 55.7138 11.6094 56.0002C11.7083 56.2867 11.8464 56.5341 12.0234 56.7424C12.2057 56.9508 12.4245 57.1122 12.6797 57.2268C12.9401 57.3414 13.2344 57.3987 13.5625 57.3987C13.9687 57.3987 14.3464 57.3206 14.6953 57.1643C15.0495 57.0028 15.3542 56.7607 15.6094 56.4377L16.7031 57.6252C16.526 57.8804 16.2839 58.1252 15.9766 58.3596C15.6745 58.594 15.3099 58.7867 14.8828 58.9377C14.4557 59.0836 13.9687 59.1565 13.4219 59.1565ZM22.7344 57.094V53.3284C22.7344 53.0575 22.6901 52.8258 22.6016 52.6331C22.513 52.4351 22.375 52.2815 22.1875 52.1721C22.0052 52.0627 21.7682 52.0081 21.4766 52.0081C21.2266 52.0081 21.0104 52.0523 20.8281 52.1409C20.6458 52.2242 20.5052 52.3466 20.4062 52.5081C20.3073 52.6643 20.2578 52.8492 20.2578 53.0627H18.0078C18.0078 52.7034 18.0911 52.3622 18.2578 52.0393C18.4245 51.7164 18.6667 51.4325 18.9844 51.1877C19.3021 50.9377 19.6797 50.7424 20.1172 50.6018C20.5599 50.4612 21.0547 50.3909 21.6016 50.3909C22.2578 50.3909 22.8411 50.5002 23.3516 50.719C23.862 50.9377 24.263 51.2659 24.5547 51.7034C24.8516 52.1409 25 52.6877 25 53.344V56.9612C25 57.4247 25.0286 57.8049 25.0859 58.1018C25.1432 58.3935 25.2266 58.6487 25.3359 58.8674V59.0002H23.0625C22.9531 58.7711 22.8698 58.4846 22.8125 58.1409C22.7604 57.7919 22.7344 57.4429 22.7344 57.094ZM23.0312 53.8518L23.0469 55.1252H21.7891C21.4922 55.1252 21.2344 55.1591 21.0156 55.2268C20.7969 55.2945 20.6172 55.3909 20.4766 55.5159C20.3359 55.6357 20.2318 55.7763 20.1641 55.9377C20.1016 56.0992 20.0703 56.2763 20.0703 56.469C20.0703 56.6617 20.1146 56.8362 20.2031 56.9924C20.2917 57.1435 20.4193 57.2633 20.5859 57.3518C20.7526 57.4351 20.9479 57.4768 21.1719 57.4768C21.5104 57.4768 21.8047 57.4091 22.0547 57.2737C22.3047 57.1383 22.4974 56.9716 22.6328 56.7737C22.7734 56.5758 22.8464 56.3883 22.8516 56.2112L23.4453 57.1643C23.362 57.3778 23.2474 57.5992 23.1016 57.8284C22.9609 58.0575 22.7812 58.2737 22.5625 58.4768C22.3437 58.6747 22.0807 58.8388 21.7734 58.969C21.4661 59.094 21.1016 59.1565 20.6797 59.1565C20.1432 59.1565 19.6562 59.0497 19.2187 58.8362C18.7865 58.6174 18.4427 58.3179 18.1875 57.9377C17.9375 57.5523 17.8125 57.1148 17.8125 56.6252C17.8125 56.1825 17.8958 55.7893 18.0625 55.4456C18.2292 55.1018 18.474 54.8127 18.7969 54.5784C19.125 54.3388 19.5339 54.1591 20.0234 54.0393C20.513 53.9143 21.0807 53.8518 21.7266 53.8518H23.0312ZM31.7266 57.1565V47.0002H33.9922V59.0002H31.9531L31.7266 57.1565ZM26.3828 54.8752V54.7112C26.3828 54.0653 26.4557 53.4794 26.6016 52.9534C26.7474 52.4221 26.9609 51.9664 27.2422 51.5862C27.5234 51.206 27.8698 50.9117 28.2812 50.7034C28.6927 50.495 29.1615 50.3909 29.6875 50.3909C30.1823 50.3909 30.6146 50.495 30.9844 50.7034C31.3594 50.9117 31.6771 51.2086 31.9375 51.594C32.2031 51.9742 32.4167 52.4247 32.5781 52.9456C32.7396 53.4612 32.8568 54.0263 32.9297 54.6409V55.0002C32.8568 55.5888 32.7396 56.1357 32.5781 56.6409C32.4167 57.1461 32.2031 57.5888 31.9375 57.969C31.6771 58.344 31.3594 58.6357 30.9844 58.844C30.6094 59.0523 30.1719 59.1565 29.6719 59.1565C29.1458 59.1565 28.6771 59.0497 28.2656 58.8362C27.8594 58.6226 27.5156 58.3232 27.2344 57.9377C26.9583 57.5523 26.7474 57.0992 26.6016 56.5784C26.4557 56.0575 26.3828 55.4898 26.3828 54.8752ZM28.6328 54.7112V54.8752C28.6328 55.2242 28.6589 55.5497 28.7109 55.8518C28.7682 56.1539 28.8594 56.4221 28.9844 56.6565C29.1146 56.8857 29.2812 57.0653 29.4844 57.1956C29.6927 57.3206 29.9453 57.3831 30.2422 57.3831C30.6276 57.3831 30.9453 57.2971 31.1953 57.1252C31.4453 56.9482 31.6354 56.706 31.7656 56.3987C31.901 56.0914 31.9792 55.7372 32 55.3362V54.3127C31.9844 53.9846 31.9375 53.6903 31.8594 53.4299C31.7865 53.1643 31.6771 52.9377 31.5312 52.7502C31.3906 52.5627 31.2135 52.4169 31 52.3127C30.7917 52.2086 30.5443 52.1565 30.2578 52.1565C29.9661 52.1565 29.7161 52.2242 29.5078 52.3596C29.2995 52.4898 29.1302 52.6695 29 52.8987C28.875 53.1278 28.7812 53.3987 28.7187 53.7112C28.6615 54.0185 28.6328 54.3518 28.6328 54.7112ZM38.125 50.5471V59.0002H35.8672V50.5471H38.125ZM35.7266 48.344C35.7266 48.0159 35.8411 47.745 36.0703 47.5315C36.2995 47.318 36.6068 47.2112 36.9922 47.2112C37.3724 47.2112 37.6771 47.318 37.9062 47.5315C38.1406 47.745 38.2578 48.0159 38.2578 48.344C38.2578 48.6721 38.1406 48.943 37.9062 49.1565C37.6771 49.37 37.3724 49.4768 36.9922 49.4768C36.6068 49.4768 36.2995 49.37 36.0703 49.1565C35.8411 48.943 35.7266 48.6721 35.7266 48.344ZM42.1875 52.3518V59.0002H39.9375V50.5471H42.0469L42.1875 52.3518ZM41.8594 54.4768H41.25C41.25 53.8518 41.3307 53.2893 41.4922 52.7893C41.6536 52.2841 41.8802 51.8544 42.1719 51.5002C42.4635 51.1409 42.8099 50.8674 43.2109 50.6799C43.6172 50.4872 44.0703 50.3909 44.5703 50.3909C44.9661 50.3909 45.3281 50.4482 45.6562 50.5627C45.9844 50.6773 46.2656 50.8596 46.5 51.1096C46.7396 51.3596 46.9219 51.6903 47.0469 52.1018C47.1771 52.5133 47.2422 53.0159 47.2422 53.6096V59.0002H44.9766V53.6018C44.9766 53.2268 44.9245 52.9351 44.8203 52.7268C44.7161 52.5185 44.5625 52.3726 44.3594 52.2893C44.1615 52.2008 43.9167 52.1565 43.625 52.1565C43.3229 52.1565 43.0599 52.2164 42.8359 52.3362C42.6172 52.456 42.4349 52.6226 42.2891 52.8362C42.1484 53.0445 42.0417 53.2893 41.9687 53.5706C41.8958 53.8518 41.8594 54.1539 41.8594 54.4768ZM54.3047 50.5471H56.3437V58.719C56.3437 59.4898 56.1719 60.1435 55.8281 60.6799C55.4896 61.2216 55.0156 61.6304 54.4062 61.9065C53.7969 62.1877 53.0885 62.3284 52.2812 62.3284C51.9271 62.3284 51.5521 62.2815 51.1562 62.1877C50.7656 62.094 50.3906 61.9482 50.0312 61.7502C49.6771 61.5523 49.3802 61.3023 49.1406 61.0002L50.1328 59.6721C50.3932 59.9742 50.6953 60.2086 51.0391 60.3752C51.3828 60.5471 51.763 60.6331 52.1797 60.6331C52.5859 60.6331 52.9297 60.5575 53.2109 60.4065C53.4922 60.2607 53.7083 60.0445 53.8594 59.7581C54.0104 59.4768 54.0859 59.1357 54.0859 58.7346V52.5002L54.3047 50.5471ZM48.6172 54.8752V54.7112C48.6172 54.0653 48.6953 53.4794 48.8516 52.9534C49.013 52.4221 49.2396 51.9664 49.5312 51.5862C49.8281 51.206 50.1875 50.9117 50.6094 50.7034C51.0312 50.495 51.5078 50.3909 52.0391 50.3909C52.6016 50.3909 53.0729 50.495 53.4531 50.7034C53.8333 50.9117 54.1458 51.2086 54.3906 51.594C54.6354 51.9742 54.8255 52.4247 54.9609 52.9456C55.1016 53.4612 55.2109 54.0263 55.2891 54.6409V55.0002C55.2109 55.5888 55.0937 56.1357 54.9375 56.6409C54.7812 57.1461 54.5755 57.5888 54.3203 57.969C54.0651 58.344 53.7474 58.6357 53.3672 58.844C52.9922 59.0523 52.5443 59.1565 52.0234 59.1565C51.5026 59.1565 51.0312 59.0497 50.6094 58.8362C50.1927 58.6226 49.8359 58.3232 49.5391 57.9377C49.2422 57.5523 49.013 57.0992 48.8516 56.5784C48.6953 56.0575 48.6172 55.4898 48.6172 54.8752ZM50.8672 54.7112V54.8752C50.8672 55.2242 50.901 55.5497 50.9687 55.8518C51.0365 56.1539 51.1406 56.4221 51.2812 56.6565C51.4271 56.8857 51.6068 57.0653 51.8203 57.1956C52.0391 57.3206 52.2969 57.3831 52.5937 57.3831C53.0052 57.3831 53.3411 57.2971 53.6016 57.1252C53.862 56.9482 54.0573 56.706 54.1875 56.3987C54.3177 56.0914 54.3932 55.7372 54.4141 55.3362V54.3127C54.4036 53.9846 54.3594 53.6903 54.2812 53.4299C54.2031 53.1643 54.0937 52.9377 53.9531 52.7502C53.8125 52.5627 53.6302 52.4169 53.4062 52.3127C53.1823 52.2086 52.9167 52.1565 52.6094 52.1565C52.3125 52.1565 52.0547 52.2242 51.8359 52.3596C51.6224 52.4898 51.4427 52.6695 51.2969 52.8987C51.1562 53.1278 51.0495 53.3987 50.9766 53.7112C50.9036 54.0185 50.8672 54.3518 50.8672 54.7112ZM68.5 47.6252H70.8359V55.1409C70.8359 56.0159 70.6484 56.7528 70.2734 57.3518C69.9036 57.9508 69.3906 58.4013 68.7344 58.7034C68.0833 59.0054 67.3333 59.1565 66.4844 59.1565C65.6354 59.1565 64.8802 59.0054 64.2187 58.7034C63.5625 58.4013 63.0469 57.9508 62.6719 57.3518C62.3021 56.7528 62.1172 56.0159 62.1172 55.1409V47.6252H64.4609V55.1409C64.4609 55.6513 64.5417 56.0679 64.7031 56.3909C64.8646 56.7138 65.0964 56.9508 65.3984 57.1018C65.7057 57.2528 66.0677 57.3284 66.4844 57.3284C66.9115 57.3284 67.2734 57.2528 67.5703 57.1018C67.8724 56.9508 68.1016 56.7138 68.2578 56.3909C68.4193 56.0679 68.5 55.6513 68.5 55.1409V47.6252ZM74.8281 52.3518V59.0002H72.5781V50.5471H74.6875L74.8281 52.3518ZM74.5 54.4768H73.8906C73.8906 53.8518 73.9713 53.2893 74.1328 52.7893C74.2943 52.2841 74.5208 51.8544 74.8125 51.5002C75.1042 51.1409 75.4505 50.8674 75.8516 50.6799C76.2578 50.4872 76.7109 50.3909 77.2109 50.3909C77.6068 50.3909 77.9687 50.4482 78.2969 50.5627C78.625 50.6773 78.9062 50.8596 79.1406 51.1096C79.3802 51.3596 79.5625 51.6903 79.6875 52.1018C79.8177 52.5133 79.8828 53.0159 79.8828 53.6096V59.0002H77.6172V53.6018C77.6172 53.2268 77.5651 52.9351 77.4609 52.7268C77.3568 52.5185 77.2031 52.3726 77 52.2893C76.8021 52.2008 76.5573 52.1565 76.2656 52.1565C75.9635 52.1565 75.7005 52.2164 75.4766 52.3362C75.2578 52.456 75.0755 52.6226 74.9297 52.8362C74.7891 53.0445 74.6823 53.2893 74.6094 53.5706C74.5365 53.8518 74.5 54.1539 74.5 54.4768ZM83.9687 50.5471V59.0002H81.7109V50.5471H83.9687ZM81.5703 48.344C81.5703 48.0159 81.6849 47.745 81.9141 47.5315C82.1432 47.318 82.4505 47.2112 82.8359 47.2112C83.2161 47.2112 83.5208 47.318 83.75 47.5315C83.9844 47.745 84.1016 48.0159 84.1016 48.344C84.1016 48.6721 83.9844 48.943 83.75 49.1565C83.5208 49.37 83.2161 49.4768 82.8359 49.4768C82.4505 49.4768 82.1432 49.37 81.9141 49.1565C81.6849 48.943 81.5703 48.6721 81.5703 48.344ZM88.7031 57.3596L90.5781 50.5471H92.9297L90.0781 59.0002H88.6562L88.7031 57.3596ZM87.4141 50.5471L89.2969 57.3674L89.3359 59.0002H87.9062L85.0547 50.5471H87.4141ZM97.7187 59.1565C97.0625 59.1565 96.474 59.0523 95.9531 58.844C95.4323 58.6304 94.9896 58.3362 94.625 57.9612C94.2656 57.5862 93.9896 57.1513 93.7969 56.6565C93.6042 56.1565 93.5078 55.6252 93.5078 55.0627V54.7502C93.5078 54.1096 93.599 53.5237 93.7812 52.9924C93.9635 52.4612 94.224 52.0002 94.5625 51.6096C94.9062 51.219 95.3229 50.9195 95.8125 50.7112C96.3021 50.4976 96.8542 50.3909 97.4687 50.3909C98.0677 50.3909 98.599 50.4898 99.0625 50.6877C99.526 50.8857 99.9141 51.1669 100.227 51.5315C100.544 51.8961 100.784 52.3336 100.945 52.844C101.107 53.3492 101.187 53.9117 101.187 54.5315V55.469H94.4687V53.969H98.9766V53.7971C98.9766 53.4846 98.9193 53.206 98.8047 52.9612C98.6953 52.7112 98.5286 52.5133 98.3047 52.3674C98.0807 52.2216 97.7943 52.1487 97.4453 52.1487C97.1484 52.1487 96.8932 52.2138 96.6797 52.344C96.4661 52.4742 96.2917 52.6565 96.1562 52.8909C96.026 53.1252 95.9271 53.4013 95.8594 53.719C95.7969 54.0315 95.7656 54.3752 95.7656 54.7502V55.0627C95.7656 55.4013 95.8125 55.7138 95.9062 56.0002C96.0052 56.2867 96.1432 56.5341 96.3203 56.7424C96.5026 56.9508 96.7213 57.1122 96.9766 57.2268C97.237 57.3414 97.5312 57.3987 97.8594 57.3987C98.2656 57.3987 98.6432 57.3206 98.9922 57.1643C99.3463 57.0028 99.651 56.7607 99.9062 56.4377L101 57.6252C100.823 57.8804 100.581 58.1252 100.273 58.3596C99.9713 58.594 99.6068 58.7867 99.1797 58.9377C98.7526 59.0836 98.2656 59.1565 97.7187 59.1565ZM104.719 52.3909V59.0002H102.469V50.5471H104.586L104.719 52.3909ZM107.266 50.4924L107.227 52.5784C107.117 52.5627 106.984 52.5497 106.828 52.5393C106.677 52.5237 106.539 52.5159 106.414 52.5159C106.096 52.5159 105.82 52.5575 105.586 52.6409C105.357 52.719 105.164 52.8362 105.008 52.9924C104.857 53.1487 104.742 53.3388 104.664 53.5627C104.591 53.7867 104.549 54.0419 104.539 54.3284L104.086 54.1877C104.086 53.6409 104.141 53.1383 104.25 52.6799C104.359 52.2164 104.518 51.8127 104.727 51.469C104.94 51.1252 105.201 50.8596 105.508 50.6721C105.815 50.4846 106.167 50.3909 106.562 50.3909C106.687 50.3909 106.815 50.4013 106.945 50.4221C107.076 50.4377 107.182 50.4612 107.266 50.4924ZM112.898 56.6643C112.898 56.5028 112.852 56.357 112.758 56.2268C112.664 56.0966 112.49 55.9768 112.234 55.8674C111.984 55.7528 111.622 55.6487 111.148 55.5549C110.721 55.4612 110.323 55.344 109.953 55.2034C109.589 55.0575 109.271 54.8831 109 54.6799C108.734 54.4768 108.526 54.2372 108.375 53.9612C108.224 53.6799 108.148 53.3596 108.148 53.0002C108.148 52.6461 108.224 52.3127 108.375 52.0002C108.531 51.6877 108.753 51.4117 109.039 51.1721C109.331 50.9273 109.685 50.7372 110.102 50.6018C110.523 50.4612 110.997 50.3909 111.523 50.3909C112.258 50.3909 112.888 50.5081 113.414 50.7424C113.945 50.9768 114.352 51.2997 114.633 51.7112C114.919 52.1174 115.062 52.581 115.062 53.1018H112.812C112.812 52.8831 112.766 52.6877 112.672 52.5159C112.583 52.3388 112.443 52.2008 112.25 52.1018C112.062 51.9976 111.818 51.9456 111.516 51.9456C111.266 51.9456 111.049 51.9898 110.867 52.0784C110.685 52.1617 110.544 52.2763 110.445 52.4221C110.352 52.5627 110.305 52.719 110.305 52.8909C110.305 53.0211 110.331 53.1383 110.383 53.2424C110.44 53.3414 110.531 53.4325 110.656 53.5159C110.781 53.5992 110.943 53.6773 111.141 53.7502C111.344 53.8179 111.594 53.8804 111.891 53.9377C112.5 54.0627 113.044 54.2268 113.523 54.4299C114.003 54.6278 114.383 54.8987 114.664 55.2424C114.945 55.581 115.086 56.0263 115.086 56.5784C115.086 56.9534 115.003 57.2971 114.836 57.6096C114.669 57.9221 114.43 58.1956 114.117 58.4299C113.805 58.6591 113.43 58.8388 112.992 58.969C112.56 59.094 112.073 59.1565 111.531 59.1565C110.745 59.1565 110.078 59.0159 109.531 58.7346C108.99 58.4534 108.578 58.0966 108.297 57.6643C108.021 57.2268 107.883 56.7789 107.883 56.3206H110.016C110.026 56.6278 110.104 56.8752 110.25 57.0627C110.401 57.2502 110.591 57.3857 110.82 57.469C111.055 57.5523 111.307 57.594 111.578 57.594C111.87 57.594 112.112 57.5549 112.305 57.4768C112.497 57.3935 112.643 57.2841 112.742 57.1487C112.846 57.0081 112.898 56.8466 112.898 56.6643ZM118.922 50.5471V59.0002H116.664V50.5471H118.922ZM116.523 48.344C116.523 48.0159 116.638 47.745 116.867 47.5315C117.096 47.318 117.404 47.2112 117.789 47.2112C118.169 47.2112 118.474 47.318 118.703 47.5315C118.937 47.745 119.055 48.0159 119.055 48.344C119.055 48.6721 118.937 48.943 118.703 49.1565C118.474 49.37 118.169 49.4768 117.789 49.4768C117.404 49.4768 117.096 49.37 116.867 49.1565C116.638 48.943 116.523 48.6721 116.523 48.344ZM124.922 50.5471V52.1409H120V50.5471H124.922ZM121.219 48.4612H123.469V56.4534C123.469 56.6982 123.5 56.8857 123.562 57.0159C123.63 57.1461 123.729 57.2372 123.859 57.2893C123.99 57.3362 124.154 57.3596 124.352 57.3596C124.492 57.3596 124.617 57.3544 124.727 57.344C124.841 57.3284 124.937 57.3127 125.016 57.2971L125.023 58.9534C124.831 59.0159 124.622 59.0653 124.398 59.1018C124.174 59.1383 123.927 59.1565 123.656 59.1565C123.161 59.1565 122.729 59.0758 122.359 58.9143C121.995 58.7476 121.714 58.482 121.516 58.1174C121.318 57.7528 121.219 57.2737 121.219 56.6799V48.4612ZM128.578 50.5471V59.0002H126.32V50.5471H128.578ZM126.18 48.344C126.18 48.0159 126.294 47.745 126.523 47.5315C126.753 47.318 127.06 47.2112 127.445 47.2112C127.826 47.2112 128.13 47.318 128.359 47.5315C128.594 47.745 128.711 48.0159 128.711 48.344C128.711 48.6721 128.594 48.943 128.359 49.1565C128.13 49.37 127.826 49.4768 127.445 49.4768C127.06 49.4768 126.753 49.37 126.523 49.1565C126.294 48.943 126.18 48.6721 126.18 48.344ZM134.328 59.1565C133.672 59.1565 133.083 59.0523 132.562 58.844C132.042 58.6304 131.599 58.3362 131.234 57.9612C130.875 57.5862 130.599 57.1513 130.406 56.6565C130.214 56.1565 130.117 55.6252 130.117 55.0627V54.7502C130.117 54.1096 130.208 53.5237 130.391 52.9924C130.573 52.4612 130.833 52.0002 131.172 51.6096C131.516 51.219 131.932 50.9195 132.422 50.7112C132.911 50.4976 133.464 50.3909 134.078 50.3909C134.677 50.3909 135.208 50.4898 135.672 50.6877C136.135 50.8857 136.523 51.1669 136.836 51.5315C137.154 51.8961 137.393 52.3336 137.555 52.844C137.716 53.3492 137.797 53.9117 137.797 54.5315V55.469H131.078V53.969H135.586V53.7971C135.586 53.4846 135.529 53.206 135.414 52.9612C135.305 52.7112 135.138 52.5133 134.914 52.3674C134.69 52.2216 134.404 52.1487 134.055 52.1487C133.758 52.1487 133.503 52.2138 133.289 52.344C133.076 52.4742 132.901 52.6565 132.766 52.8909C132.635 53.1252 132.536 53.4013 132.469 53.719C132.406 54.0315 132.375 54.3752 132.375 54.7502V55.0627C132.375 55.4013 132.422 55.7138 132.516 56.0002C132.615 56.2867 132.753 56.5341 132.93 56.7424C133.112 56.9508 133.331 57.1122 133.586 57.2268C133.846 57.3414 134.141 57.3987 134.469 57.3987C134.875 57.3987 135.253 57.3206 135.602 57.1643C135.956 57.0028 136.26 56.7607 136.516 56.4377L137.609 57.6252C137.432 57.8804 137.19 58.1252 136.883 58.3596C136.581 58.594 136.216 58.7867 135.789 58.9377C135.362 59.0836 134.875 59.1565 134.328 59.1565ZM143.648 56.6643C143.648 56.5028 143.602 56.357 143.508 56.2268C143.414 56.0966 143.24 55.9768 142.984 55.8674C142.734 55.7528 142.372 55.6487 141.898 55.5549C141.471 55.4612 141.073 55.344 140.703 55.2034C140.339 55.0575 140.021 54.8831 139.75 54.6799C139.484 54.4768 139.276 54.2372 139.125 53.9612C138.974 53.6799 138.898 53.3596 138.898 53.0002C138.898 52.6461 138.974 52.3127 139.125 52.0002C139.281 51.6877 139.503 51.4117 139.789 51.1721C140.081 50.9273 140.435 50.7372 140.852 50.6018C141.273 50.4612 141.747 50.3909 142.273 50.3909C143.008 50.3909 143.638 50.5081 144.164 50.7424C144.695 50.9768 145.102 51.2997 145.383 51.7112C145.669 52.1174 145.812 52.581 145.812 53.1018H143.562C143.562 52.8831 143.516 52.6877 143.422 52.5159C143.333 52.3388 143.193 52.2008 143 52.1018C142.812 51.9976 142.568 51.9456 142.266 51.9456C142.016 51.9456 141.799 51.9898 141.617 52.0784C141.435 52.1617 141.294 52.2763 141.195 52.4221C141.102 52.5627 141.055 52.719 141.055 52.8909C141.055 53.0211 141.081 53.1383 141.133 53.2424C141.19 53.3414 141.281 53.4325 141.406 53.5159C141.531 53.5992 141.693 53.6773 141.891 53.7502C142.094 53.8179 142.344 53.8804 142.641 53.9377C143.25 54.0627 143.794 54.2268 144.273 54.4299C144.753 54.6278 145.133 54.8987 145.414 55.2424C145.695 55.581 145.836 56.0263 145.836 56.5784C145.836 56.9534 145.753 57.2971 145.586 57.6096C145.419 57.9221 145.18 58.1956 144.867 58.4299C144.555 58.6591 144.18 58.8388 143.742 58.969C143.31 59.094 142.823 59.1565 142.281 59.1565C141.495 59.1565 140.828 59.0159 140.281 58.7346C139.74 58.4534 139.328 58.0966 139.047 57.6643C138.771 57.2268 138.633 56.7789 138.633 56.3206H140.766C140.776 56.6278 140.854 56.8752 141 57.0627C141.151 57.2502 141.341 57.3857 141.57 57.469C141.805 57.5523 142.057 57.594 142.328 57.594C142.62 57.594 142.862 57.5549 143.055 57.4768C143.247 57.3935 143.393 57.2841 143.492 57.1487C143.596 57.0081 143.648 56.8466 143.648 56.6643ZM156.047 49.5706L152.953 59.0002H150.461L154.687 47.6252H156.273L156.047 49.5706ZM158.617 59.0002L155.516 49.5706L155.266 47.6252H156.867L161.117 59.0002H158.617ZM158.477 54.7659V56.6018H152.469V54.7659H158.477ZM163.984 52.3518V59.0002H161.734V50.5471H163.844L163.984 52.3518ZM163.656 54.4768H163.047C163.047 53.8518 163.128 53.2893 163.289 52.7893C163.451 52.2841 163.677 51.8544 163.969 51.5002C164.26 51.1409 164.607 50.8674 165.008 50.6799C165.414 50.4872 165.867 50.3909 166.367 50.3909C166.763 50.3909 167.125 50.4482 167.453 50.5627C167.781 50.6773 168.062 50.8596 168.297 51.1096C168.536 51.3596 168.719 51.6903 168.844 52.1018C168.974 52.5133 169.039 53.0159 169.039 53.6096V59.0002H166.773V53.6018C166.773 53.2268 166.721 52.9351 166.617 52.7268C166.513 52.5185 166.359 52.3726 166.156 52.2893C165.958 52.2008 165.714 52.1565 165.422 52.1565C165.12 52.1565 164.857 52.2164 164.633 52.3362C164.414 52.456 164.232 52.6226 164.086 52.8362C163.945 53.0445 163.839 53.2893 163.766 53.5706C163.693 53.8518 163.656 54.1539 163.656 54.4768ZM175.742 57.1565V47.0002H178.008V59.0002H175.969L175.742 57.1565ZM170.398 54.8752V54.7112C170.398 54.0653 170.471 53.4794 170.617 52.9534C170.763 52.4221 170.977 51.9664 171.258 51.5862C171.539 51.206 171.885 50.9117 172.297 50.7034C172.708 50.495 173.177 50.3909 173.703 50.3909C174.198 50.3909 174.63 50.495 175 50.7034C175.375 50.9117 175.693 51.2086 175.953 51.594C176.219 51.9742 176.432 52.4247 176.594 52.9456C176.755 53.4612 176.872 54.0263 176.945 54.6409V55.0002C176.872 55.5888 176.755 56.1357 176.594 56.6409C176.432 57.1461 176.219 57.5888 175.953 57.969C175.693 58.344 175.375 58.6357 175 58.844C174.625 59.0523 174.187 59.1565 173.687 59.1565C173.161 59.1565 172.693 59.0497 172.281 58.8362C171.875 58.6226 171.531 58.3232 171.25 57.9377C170.974 57.5523 170.763 57.0992 170.617 56.5784C170.471 56.0575 170.398 55.4898 170.398 54.8752ZM172.648 54.7112V54.8752C172.648 55.2242 172.674 55.5497 172.727 55.8518C172.784 56.1539 172.875 56.4221 173 56.6565C173.13 56.8857 173.297 57.0653 173.5 57.1956C173.708 57.3206 173.961 57.3831 174.258 57.3831C174.643 57.3831 174.961 57.2971 175.211 57.1252C175.461 56.9482 175.651 56.706 175.781 56.3987C175.917 56.0914 175.995 55.7372 176.016 55.3362V54.3127C176 53.9846 175.953 53.6903 175.875 53.4299C175.802 53.1643 175.693 52.9377 175.547 52.7502C175.406 52.5627 175.229 52.4169 175.016 52.3127C174.807 52.2086 174.56 52.1565 174.273 52.1565C173.982 52.1565 173.732 52.2242 173.523 52.3596C173.315 52.4898 173.146 52.6695 173.016 52.8987C172.891 53.1278 172.797 53.3987 172.734 53.7112C172.677 54.0185 172.648 54.3518 172.648 54.7112ZM190.484 55.2268H192.82C192.773 55.9924 192.562 56.6721 192.187 57.2659C191.818 57.8596 191.299 58.3232 190.633 58.6565C189.971 58.9898 189.174 59.1565 188.242 59.1565C187.513 59.1565 186.859 59.0315 186.281 58.7815C185.703 58.5263 185.208 58.1617 184.797 57.6877C184.391 57.2138 184.081 56.6409 183.867 55.969C183.654 55.2971 183.547 54.5445 183.547 53.7112V52.9221C183.547 52.0888 183.656 51.3362 183.875 50.6643C184.099 49.9872 184.417 49.4117 184.828 48.9377C185.245 48.4638 185.742 48.0992 186.32 47.844C186.898 47.5888 187.544 47.4612 188.258 47.4612C189.206 47.4612 190.005 47.6331 190.656 47.9768C191.312 48.3206 191.82 48.7945 192.18 49.3987C192.544 50.0028 192.763 50.6903 192.836 51.4612H190.492C190.466 51.0028 190.375 50.6148 190.219 50.2971C190.062 49.9742 189.826 49.732 189.508 49.5706C189.195 49.4039 188.779 49.3206 188.258 49.3206C187.867 49.3206 187.526 49.3935 187.234 49.5393C186.943 49.6851 186.698 49.9065 186.5 50.2034C186.302 50.5002 186.154 50.8752 186.055 51.3284C185.961 51.7763 185.914 52.3023 185.914 52.9065V53.7112C185.914 54.2997 185.958 54.8179 186.047 55.2659C186.135 55.7086 186.271 56.0836 186.453 56.3909C186.641 56.6929 186.88 56.9221 187.172 57.0784C187.469 57.2294 187.826 57.3049 188.242 57.3049C188.732 57.3049 189.135 57.2268 189.453 57.0706C189.771 56.9143 190.013 56.6825 190.18 56.3752C190.352 56.0679 190.453 55.6851 190.484 55.2268ZM193.859 54.8596V54.6956C193.859 54.0758 193.948 53.5054 194.125 52.9846C194.302 52.4586 194.56 52.0028 194.898 51.6174C195.237 51.232 195.654 50.9325 196.148 50.719C196.643 50.5002 197.211 50.3909 197.852 50.3909C198.492 50.3909 199.062 50.5002 199.562 50.719C200.062 50.9325 200.482 51.232 200.82 51.6174C201.164 52.0028 201.424 52.4586 201.602 52.9846C201.779 53.5054 201.867 54.0758 201.867 54.6956V54.8596C201.867 55.4742 201.779 56.0445 201.602 56.5706C201.424 57.0914 201.164 57.5471 200.82 57.9377C200.482 58.3232 200.065 58.6226 199.57 58.8362C199.076 59.0497 198.508 59.1565 197.867 59.1565C197.227 59.1565 196.656 59.0497 196.156 58.8362C195.661 58.6226 195.242 58.3232 194.898 57.9377C194.56 57.5471 194.302 57.0914 194.125 56.5706C193.948 56.0445 193.859 55.4742 193.859 54.8596ZM196.109 54.6956V54.8596C196.109 55.2138 196.141 55.5445 196.203 55.8518C196.266 56.1591 196.365 56.4299 196.5 56.6643C196.641 56.8935 196.823 57.0732 197.047 57.2034C197.271 57.3336 197.544 57.3987 197.867 57.3987C198.18 57.3987 198.448 57.3336 198.672 57.2034C198.896 57.0732 199.076 56.8935 199.211 56.6643C199.346 56.4299 199.445 56.1591 199.508 55.8518C199.576 55.5445 199.609 55.2138 199.609 54.8596V54.6956C199.609 54.3518 199.576 54.0289 199.508 53.7268C199.445 53.4195 199.344 53.1487 199.203 52.9143C199.068 52.6747 198.888 52.4872 198.664 52.3518C198.44 52.2164 198.169 52.1487 197.852 52.1487C197.534 52.1487 197.263 52.2164 197.039 52.3518C196.82 52.4872 196.641 52.6747 196.5 52.9143C196.365 53.1487 196.266 53.4195 196.203 53.7268C196.141 54.0289 196.109 54.3518 196.109 54.6956ZM205.5 52.2971V59.0002H203.242V50.5471H205.359L205.5 52.2971ZM205.187 54.4768H204.562C204.562 53.8883 204.633 53.3466 204.773 52.8518C204.919 52.3518 205.13 51.9195 205.406 51.5549C205.687 51.1851 206.034 50.8987 206.445 50.6956C206.857 50.4924 207.333 50.3909 207.875 50.3909C208.25 50.3909 208.594 50.4482 208.906 50.5627C209.219 50.6721 209.487 50.8466 209.711 51.0862C209.94 51.3206 210.117 51.6278 210.242 52.0081C210.367 52.3831 210.43 52.8336 210.43 53.3596V59.0002H208.18V53.6096C208.18 53.2242 208.128 52.9273 208.023 52.719C207.919 52.5107 207.771 52.3648 207.578 52.2815C207.391 52.1982 207.164 52.1565 206.898 52.1565C206.607 52.1565 206.352 52.2164 206.133 52.3362C205.919 52.456 205.742 52.6226 205.602 52.8362C205.461 53.0445 205.357 53.2893 205.289 53.5706C205.221 53.8518 205.187 54.1539 205.187 54.4768ZM210.219 54.219L209.414 54.3206C209.414 53.7685 209.482 53.2554 209.617 52.7815C209.758 52.3075 209.964 51.8909 210.234 51.5315C210.51 51.1721 210.852 50.8935 211.258 50.6956C211.664 50.4924 212.133 50.3909 212.664 50.3909C213.07 50.3909 213.44 50.4508 213.773 50.5706C214.107 50.6851 214.391 50.87 214.625 51.1252C214.865 51.3752 215.047 51.7034 215.172 52.1096C215.302 52.5159 215.367 53.0133 215.367 53.6018V59.0002H213.109V53.6018C213.109 53.2112 213.057 52.9143 212.953 52.7112C212.854 52.5028 212.708 52.3596 212.516 52.2815C212.328 52.1982 212.104 52.1565 211.844 52.1565C211.573 52.1565 211.336 52.2112 211.133 52.3206C210.93 52.4247 210.76 52.5706 210.625 52.7581C210.49 52.9456 210.388 53.1643 210.32 53.4143C210.253 53.6591 210.219 53.9273 210.219 54.219ZM219.359 52.1721V62.2502H217.109V50.5471H219.195L219.359 52.1721ZM224.711 54.6799V54.844C224.711 55.4586 224.638 56.0289 224.492 56.5549C224.352 57.081 224.143 57.5393 223.867 57.9299C223.591 58.3153 223.247 58.6174 222.836 58.8362C222.43 59.0497 221.961 59.1565 221.43 59.1565C220.914 59.1565 220.466 59.0523 220.086 58.844C219.706 58.6357 219.385 58.344 219.125 57.969C218.87 57.5888 218.664 57.1487 218.508 56.6487C218.352 56.1487 218.232 55.6122 218.148 55.0393V54.6096C218.232 53.995 218.352 53.4325 218.508 52.9221C218.664 52.4065 218.87 51.9612 219.125 51.5862C219.385 51.206 219.703 50.9117 220.078 50.7034C220.458 50.495 220.904 50.3909 221.414 50.3909C221.951 50.3909 222.422 50.4924 222.828 50.6956C223.24 50.8987 223.583 51.1903 223.859 51.5706C224.141 51.9508 224.352 52.4039 224.492 52.9299C224.638 53.456 224.711 54.0393 224.711 54.6799ZM222.453 54.844V54.6799C222.453 54.3206 222.422 53.9898 222.359 53.6877C222.302 53.3804 222.208 53.1122 222.078 52.8831C221.953 52.6539 221.786 52.4768 221.578 52.3518C221.375 52.2216 221.128 52.1565 220.836 52.1565C220.529 52.1565 220.266 52.206 220.047 52.3049C219.833 52.4039 219.659 52.5471 219.523 52.7346C219.388 52.9221 219.286 53.1461 219.219 53.4065C219.151 53.6669 219.109 53.9612 219.094 54.2893V55.3752C219.12 55.7607 219.193 56.107 219.312 56.4143C219.432 56.7164 219.617 56.956 219.867 57.1331C220.117 57.3101 220.445 57.3987 220.852 57.3987C221.148 57.3987 221.398 57.3336 221.602 57.2034C221.805 57.0679 221.969 56.8831 222.094 56.6487C222.224 56.4143 222.315 56.1435 222.367 55.8362C222.424 55.5289 222.453 55.1982 222.453 54.844ZM230.672 57.094V53.3284C230.672 53.0575 230.628 52.8258 230.539 52.6331C230.451 52.4351 230.312 52.2815 230.125 52.1721C229.943 52.0627 229.706 52.0081 229.414 52.0081C229.164 52.0081 228.948 52.0523 228.766 52.1409C228.583 52.2242 228.443 52.3466 228.344 52.5081C228.245 52.6643 228.195 52.8492 228.195 53.0627H225.945C225.945 52.7034 226.029 52.3622 226.195 52.0393C226.362 51.7164 226.604 51.4325 226.922 51.1877C227.24 50.9377 227.617 50.7424 228.055 50.6018C228.497 50.4612 228.992 50.3909 229.539 50.3909C230.195 50.3909 230.779 50.5002 231.289 50.719C231.799 50.9377 232.201 51.2659 232.492 51.7034C232.789 52.1409 232.937 52.6877 232.937 53.344V56.9612C232.937 57.4247 232.966 57.8049 233.023 58.1018C233.081 58.3935 233.164 58.6487 233.273 58.8674V59.0002H231C230.891 58.7711 230.807 58.4846 230.75 58.1409C230.698 57.7919 230.672 57.4429 230.672 57.094ZM230.969 53.8518L230.984 55.1252H229.727C229.43 55.1252 229.172 55.1591 228.953 55.2268C228.734 55.2945 228.555 55.3909 228.414 55.5159C228.273 55.6357 228.169 55.7763 228.102 55.9377C228.039 56.0992 228.008 56.2763 228.008 56.469C228.008 56.6617 228.052 56.8362 228.141 56.9924C228.229 57.1435 228.357 57.2633 228.523 57.3518C228.69 57.4351 228.885 57.4768 229.109 57.4768C229.448 57.4768 229.742 57.4091 229.992 57.2737C230.242 57.1383 230.435 56.9716 230.57 56.7737C230.711 56.5758 230.784 56.3883 230.789 56.2112L231.383 57.1643C231.299 57.3778 231.185 57.5992 231.039 57.8284C230.898 58.0575 230.719 58.2737 230.5 58.4768C230.281 58.6747 230.018 58.8388 229.711 58.969C229.404 59.094 229.039 59.1565 228.617 59.1565C228.081 59.1565 227.594 59.0497 227.156 58.8362C226.724 58.6174 226.38 58.3179 226.125 57.9377C225.875 57.5523 225.75 57.1148 225.75 56.6252C225.75 56.1825 225.833 55.7893 226 55.4456C226.167 55.1018 226.411 54.8127 226.734 54.5784C227.062 54.3388 227.471 54.1591 227.961 54.0393C228.451 53.9143 229.018 53.8518 229.664 53.8518H230.969ZM236.875 52.3518V59.0002H234.625V50.5471H236.734L236.875 52.3518ZM236.547 54.4768H235.937C235.937 53.8518 236.018 53.2893 236.18 52.7893C236.341 52.2841 236.568 51.8544 236.859 51.5002C237.151 51.1409 237.497 50.8674 237.898 50.6799C238.305 50.4872 238.758 50.3909 239.258 50.3909C239.654 50.3909 240.016 50.4482 240.344 50.5627C240.672 50.6773 240.953 50.8596 241.187 51.1096C241.427 51.3596 241.609 51.6903 241.734 52.1018C241.865 52.5133 241.93 53.0159 241.93 53.6096V59.0002H239.664V53.6018C239.664 53.2268 239.612 52.9351 239.508 52.7268C239.404 52.5185 239.25 52.3726 239.047 52.2893C238.849 52.2008 238.604 52.1565 238.312 52.1565C238.01 52.1565 237.747 52.2164 237.523 52.3362C237.305 52.456 237.122 52.6226 236.977 52.8362C236.836 53.0445 236.729 53.2893 236.656 53.5706C236.583 53.8518 236.547 54.1539 236.547 54.4768ZM246.016 50.5471V59.0002H243.758V50.5471H246.016ZM243.617 48.344C243.617 48.0159 243.732 47.745 243.961 47.5315C244.19 47.318 244.497 47.2112 244.883 47.2112C245.263 47.2112 245.568 47.318 245.797 47.5315C246.031 47.745 246.148 48.0159 246.148 48.344C246.148 48.6721 246.031 48.943 245.797 49.1565C245.568 49.37 245.263 49.4768 244.883 49.4768C244.497 49.4768 244.19 49.37 243.961 49.1565C243.732 48.943 243.617 48.6721 243.617 48.344ZM251.766 59.1565C251.109 59.1565 250.521 59.0523 250 58.844C249.479 58.6304 249.036 58.3362 248.672 57.9612C248.312 57.5862 248.036 57.1513 247.844 56.6565C247.651 56.1565 247.555 55.6252 247.555 55.0627V54.7502C247.555 54.1096 247.646 53.5237 247.828 52.9924C248.01 52.4612 248.271 52.0002 248.609 51.6096C248.953 51.219 249.37 50.9195 249.859 50.7112C250.349 50.4976 250.901 50.3909 251.516 50.3909C252.115 50.3909 252.646 50.4898 253.109 50.6877C253.573 50.8857 253.961 51.1669 254.273 51.5315C254.591 51.8961 254.831 52.3336 254.992 52.844C255.154 53.3492 255.234 53.9117 255.234 54.5315V55.469H248.516V53.969H253.023V53.7971C253.023 53.4846 252.966 53.206 252.852 52.9612C252.742 52.7112 252.576 52.5133 252.352 52.3674C252.128 52.2216 251.841 52.1487 251.492 52.1487C251.195 52.1487 250.94 52.2138 250.727 52.344C250.513 52.4742 250.339 52.6565 250.203 52.8909C250.073 53.1252 249.974 53.4013 249.906 53.719C249.844 54.0315 249.812 54.3752 249.812 54.7502V55.0627C249.812 55.4013 249.859 55.7138 249.953 56.0002C250.052 56.2867 250.19 56.5341 250.367 56.7424C250.549 56.9508 250.768 57.1122 251.023 57.2268C251.284 57.3414 251.578 57.3987 251.906 57.3987C252.312 57.3987 252.69 57.3206 253.039 57.1643C253.393 57.0028 253.698 56.7607 253.953 56.4377L255.047 57.6252C254.87 57.8804 254.628 58.1252 254.32 58.3596C254.018 58.594 253.654 58.7867 253.227 58.9377C252.799 59.0836 252.312 59.1565 251.766 59.1565ZM261.086 56.6643C261.086 56.5028 261.039 56.357 260.945 56.2268C260.852 56.0966 260.677 55.9768 260.422 55.8674C260.172 55.7528 259.81 55.6487 259.336 55.5549C258.909 55.4612 258.51 55.344 258.141 55.2034C257.776 55.0575 257.458 54.8831 257.187 54.6799C256.922 54.4768 256.714 54.2372 256.562 53.9612C256.411 53.6799 256.336 53.3596 256.336 53.0002C256.336 52.6461 256.411 52.3127 256.562 52.0002C256.719 51.6877 256.94 51.4117 257.227 51.1721C257.518 50.9273 257.872 50.7372 258.289 50.6018C258.711 50.4612 259.185 50.3909 259.711 50.3909C260.445 50.3909 261.076 50.5081 261.602 50.7424C262.133 50.9768 262.539 51.2997 262.82 51.7112C263.107 52.1174 263.25 52.581 263.25 53.1018H261C261 52.8831 260.953 52.6877 260.859 52.5159C260.771 52.3388 260.63 52.2008 260.437 52.1018C260.25 51.9976 260.005 51.9456 259.703 51.9456C259.453 51.9456 259.237 51.9898 259.055 52.0784C258.872 52.1617 258.732 52.2763 258.633 52.4221C258.539 52.5627 258.492 52.719 258.492 52.8909C258.492 53.0211 258.518 53.1383 258.57 53.2424C258.628 53.3414 258.719 53.4325 258.844 53.5159C258.969 53.5992 259.13 53.6773 259.328 53.7502C259.531 53.8179 259.781 53.8804 260.078 53.9377C260.687 54.0627 261.232 54.2268 261.711 54.4299C262.19 54.6278 262.57 54.8987 262.852 55.2424C263.133 55.581 263.273 56.0263 263.273 56.5784C263.273 56.9534 263.19 57.2971 263.023 57.6096C262.857 57.9221 262.617 58.1956 262.305 58.4299C261.992 58.6591 261.617 58.8388 261.18 58.969C260.747 59.094 260.26 59.1565 259.719 59.1565C258.932 59.1565 258.266 59.0159 257.719 58.7346C257.177 58.4534 256.766 58.0966 256.484 57.6643C256.208 57.2268 256.07 56.7789 256.07 56.3206H258.203C258.214 56.6278 258.292 56.8752 258.437 57.0627C258.589 57.2502 258.779 57.3857 259.008 57.469C259.242 57.5523 259.495 57.594 259.766 57.594C260.057 57.594 260.299 57.5549 260.492 57.4768C260.685 57.3935 260.831 57.2841 260.93 57.1487C261.034 57.0081 261.086 56.8466 261.086 56.6643Z" fill="#515151"/>
</svg>
