<svg width="92" height="116" viewBox="0 0 92 116" fill="none" xmlns="http://www.w3.org/2000/svg">
<g opacity="0.63">
<rect y="0.449463" width="1.5" height="1.70328" fill="white"/>
<rect x="10" y="0.449463" width="1.5" height="1.70328" fill="white"/>
<rect x="20" y="0.449463" width="1.5" height="1.70328" fill="white"/>
<rect x="30" y="0.449463" width="1.5" height="1.70328" fill="white"/>
<rect x="40" y="0.449463" width="1.5" height="1.70328" fill="white"/>
<rect x="50" y="0.449463" width="1.5" height="1.70328" fill="white"/>
<rect x="60" y="0.449463" width="1.5" height="1.70328" fill="white"/>
<rect x="70" y="0.449463" width="1.5" height="1.70328" fill="white"/>
<rect x="80" y="0.449463" width="1.5" height="1.70328" fill="white"/>
<rect x="90" y="0.449463" width="1.5" height="1.70328" fill="white"/>
<rect y="11.8047" width="1.5" height="1.70328" fill="white"/>
<rect x="10" y="11.8047" width="1.5" height="1.70328" fill="white"/>
<rect x="20" y="11.8047" width="1.5" height="1.70328" fill="white"/>
<rect x="30" y="11.8047" width="1.5" height="1.70328" fill="white"/>
<rect x="40" y="11.8047" width="1.5" height="1.70328" fill="white"/>
<rect x="50" y="11.8047" width="1.5" height="1.70328" fill="white"/>
<rect x="60" y="11.8047" width="1.5" height="1.70328" fill="white"/>
<rect x="70" y="11.8047" width="1.5" height="1.70328" fill="white"/>
<rect x="80" y="11.8047" width="1.5" height="1.70328" fill="white"/>
<rect x="90" y="11.8047" width="1.5" height="1.70328" fill="white"/>
<rect y="23.1599" width="1.5" height="1.70328" fill="white"/>
<rect x="10" y="23.1599" width="1.5" height="1.70328" fill="white"/>
<rect x="20" y="23.1599" width="1.5" height="1.70328" fill="white"/>
<rect x="30" y="23.1599" width="1.5" height="1.70328" fill="white"/>
<rect x="40" y="23.1599" width="1.5" height="1.70328" fill="white"/>
<rect x="50" y="23.1599" width="1.5" height="1.70328" fill="white"/>
<rect x="60" y="23.1599" width="1.5" height="1.70328" fill="white"/>
<rect x="70" y="23.1599" width="1.5" height="1.70328" fill="white"/>
<rect x="80" y="23.1599" width="1.5" height="1.70328" fill="white"/>
<rect x="90" y="23.1599" width="1.5" height="1.70328" fill="white"/>
<rect y="34.5151" width="1.5" height="1.70328" fill="white"/>
<rect x="10" y="34.5151" width="1.5" height="1.70328" fill="white"/>
<rect x="20" y="34.5151" width="1.5" height="1.70328" fill="white"/>
<rect x="30" y="34.5151" width="1.5" height="1.70328" fill="white"/>
<rect x="40" y="34.5151" width="1.5" height="1.70328" fill="white"/>
<rect x="50" y="34.5151" width="1.5" height="1.70328" fill="white"/>
<rect x="60" y="34.5151" width="1.5" height="1.70328" fill="white"/>
<rect x="70" y="34.5151" width="1.5" height="1.70328" fill="white"/>
<rect x="80" y="34.5151" width="1.5" height="1.70328" fill="white"/>
<rect x="90" y="34.5151" width="1.5" height="1.70328" fill="white"/>
<rect y="45.8704" width="1.5" height="1.70328" fill="white"/>
<rect x="10" y="45.8704" width="1.5" height="1.70328" fill="white"/>
<rect x="20" y="45.8704" width="1.5" height="1.70328" fill="white"/>
<rect x="30" y="45.8704" width="1.5" height="1.70328" fill="white"/>
<rect x="40" y="45.8704" width="1.5" height="1.70328" fill="white"/>
<rect x="50" y="45.8704" width="1.5" height="1.70328" fill="white"/>
<rect x="60" y="45.8704" width="1.5" height="1.70328" fill="white"/>
<rect x="70" y="45.8704" width="1.5" height="1.70328" fill="white"/>
<rect x="80" y="45.8704" width="1.5" height="1.70328" fill="white"/>
<rect x="90" y="45.8704" width="1.5" height="1.70328" fill="white"/>
<rect y="57.2253" width="1.5" height="1.70328" fill="white"/>
<rect x="10" y="57.2253" width="1.5" height="1.70328" fill="white"/>
<rect x="20" y="57.2253" width="1.5" height="1.70328" fill="white"/>
<rect x="30" y="57.2253" width="1.5" height="1.70328" fill="white"/>
<rect x="40" y="57.2253" width="1.5" height="1.70328" fill="white"/>
<rect x="50" y="57.2253" width="1.5" height="1.70328" fill="white"/>
<rect x="60" y="57.2253" width="1.5" height="1.70328" fill="white"/>
<rect x="70" y="57.2253" width="1.5" height="1.70328" fill="white"/>
<rect x="80" y="57.2253" width="1.5" height="1.70328" fill="white"/>
<rect x="90" y="57.2253" width="1.5" height="1.70328" fill="white"/>
<rect y="68.5806" width="1.5" height="1.70328" fill="white"/>
<rect x="10" y="68.5806" width="1.5" height="1.70328" fill="white"/>
<rect x="20" y="68.5806" width="1.5" height="1.70328" fill="white"/>
<rect x="30" y="68.5806" width="1.5" height="1.70328" fill="white"/>
<rect x="40" y="68.5806" width="1.5" height="1.70328" fill="white"/>
<rect x="50" y="68.5806" width="1.5" height="1.70328" fill="white"/>
<rect x="60" y="68.5806" width="1.5" height="1.70328" fill="white"/>
<rect x="70" y="68.5806" width="1.5" height="1.70328" fill="white"/>
<rect x="80" y="68.5806" width="1.5" height="1.70328" fill="white"/>
<rect x="90" y="68.5806" width="1.5" height="1.70328" fill="white"/>
<rect y="79.9358" width="1.5" height="1.70328" fill="white"/>
<rect x="10" y="79.9358" width="1.5" height="1.70328" fill="white"/>
<rect x="20" y="79.9358" width="1.5" height="1.70328" fill="white"/>
<rect x="30" y="79.9358" width="1.5" height="1.70328" fill="white"/>
<rect x="40" y="79.9358" width="1.5" height="1.70328" fill="white"/>
<rect x="50" y="79.9358" width="1.5" height="1.70328" fill="white"/>
<rect x="60" y="79.9358" width="1.5" height="1.70328" fill="white"/>
<rect x="70" y="79.9358" width="1.5" height="1.70328" fill="white"/>
<rect x="80" y="79.9358" width="1.5" height="1.70328" fill="white"/>
<rect x="90" y="79.9358" width="1.5" height="1.70328" fill="white"/>
<rect y="91.291" width="1.5" height="1.70328" fill="white"/>
<rect x="10" y="91.291" width="1.5" height="1.70328" fill="white"/>
<rect x="20" y="91.291" width="1.5" height="1.70328" fill="white"/>
<rect x="30" y="91.291" width="1.5" height="1.70328" fill="white"/>
<rect x="40" y="91.291" width="1.5" height="1.70328" fill="white"/>
<rect x="50" y="91.291" width="1.5" height="1.70328" fill="white"/>
<rect x="60" y="91.291" width="1.5" height="1.70328" fill="white"/>
<rect x="70" y="91.291" width="1.5" height="1.70328" fill="white"/>
<rect x="80" y="91.291" width="1.5" height="1.70328" fill="white"/>
<rect x="90" y="91.291" width="1.5" height="1.70328" fill="white"/>
<rect y="102.646" width="1.5" height="1.70328" fill="white"/>
<rect x="10" y="102.646" width="1.5" height="1.70328" fill="white"/>
<rect x="20" y="102.646" width="1.5" height="1.70328" fill="white"/>
<rect x="30" y="102.646" width="1.5" height="1.70328" fill="white"/>
<rect x="40" y="102.646" width="1.5" height="1.70328" fill="white"/>
<rect x="50" y="102.646" width="1.5" height="1.70328" fill="white"/>
<rect x="60" y="102.646" width="1.5" height="1.70328" fill="white"/>
<rect x="70" y="102.646" width="1.5" height="1.70328" fill="white"/>
<rect x="80" y="102.646" width="1.5" height="1.70328" fill="white"/>
<rect x="90" y="102.646" width="1.5" height="1.70328" fill="white"/>
<rect y="114.001" width="1.5" height="1.70328" fill="white"/>
<rect x="10" y="114.001" width="1.5" height="1.70328" fill="white"/>
<rect x="20" y="114.001" width="1.5" height="1.70328" fill="white"/>
<rect x="30" y="114.001" width="1.5" height="1.70328" fill="white"/>
<rect x="40" y="114.001" width="1.5" height="1.70328" fill="white"/>
<rect x="50" y="114.001" width="1.5" height="1.70328" fill="white"/>
<rect x="60" y="114.001" width="1.5" height="1.70328" fill="white"/>
<rect x="70" y="114.001" width="1.5" height="1.70328" fill="white"/>
<rect x="80" y="114.001" width="1.5" height="1.70328" fill="white"/>
<rect x="90" y="114.001" width="1.5" height="1.70328" fill="white"/>
</g>
</svg>
