<svg width="9" height="6" viewBox="0 0 9 6" fill="none" xmlns="http://www.w3.org/2000/svg">
<path d="M8.31645 1.16338C8.19748 1.04439 8.03614 0.977539 7.86792 0.977539C7.69969 0.977539 7.53836 1.04439 7.41939 1.16338L4.27904 4.30539L1.13869 1.16338C1.01904 1.04776 0.858783 0.983781 0.692441 0.985227C0.5261 0.986673 0.366981 1.05343 0.249355 1.17112C0.13173 1.2888 0.0650101 1.44801 0.0635643 1.61444C0.0621185 1.78087 0.126064 1.9412 0.241628 2.06092L3.83051 5.65169C3.94948 5.77069 4.11081 5.83754 4.27904 5.83754C4.44726 5.83754 4.6086 5.77069 4.72757 5.65169L8.31645 2.06092C8.43538 1.94189 8.5022 1.78046 8.5022 1.61215C8.5022 1.44384 8.43538 1.28242 8.31645 1.16338Z" fill="white"/>
</svg>
