<svg width="122" height="26" viewBox="0 0 122 26" fill="none" xmlns="http://www.w3.org/2000/svg">
<path d="M35.3001 8.49451V6.83051H38.6281V18.4945H36.7881V8.49451H35.3001ZM41.1338 12.5105C41.1338 10.6652 41.4432 9.22517 42.0618 8.19051C42.6912 7.14517 43.7685 6.62251 45.2938 6.62251C46.8192 6.62251 47.8912 7.14517 48.5098 8.19051C49.1392 9.22517 49.4538 10.6652 49.4538 12.5105C49.4538 14.3772 49.1392 15.8385 48.5098 16.8945C47.8912 17.9398 46.8192 18.4625 45.2938 18.4625C43.7685 18.4625 42.6912 17.9398 42.0618 16.8945C41.4432 15.8385 41.1338 14.3772 41.1338 12.5105ZM47.6618 12.5105C47.6618 11.6465 47.6032 10.9158 47.4858 10.3185C47.3792 9.72117 47.1552 9.23584 46.8138 8.86251C46.4725 8.47851 45.9658 8.28651 45.2938 8.28651C44.6218 8.28651 44.1152 8.47851 43.7738 8.86251C43.4325 9.23584 43.2032 9.72117 43.0858 10.3185C42.9792 10.9158 42.9258 11.6465 42.9258 12.5105C42.9258 13.4065 42.9792 14.1585 43.0858 14.7665C43.1925 15.3745 43.4165 15.8652 43.7578 16.2385C44.1098 16.6118 44.6218 16.7985 45.2938 16.7985C45.9658 16.7985 46.4725 16.6118 46.8138 16.2385C47.1658 15.8652 47.3952 15.3745 47.5018 14.7665C47.6085 14.1585 47.6618 13.4065 47.6618 12.5105ZM60.2158 13.4865H56.9838V16.7985H55.2878V13.4865H52.0558V11.9505H55.2878V8.63851H56.9838V11.9505H60.2158V13.4865ZM69.026 17.0225H72.786V18.4945H67.202V7.37451H69.026V17.0225ZM82.3913 13.8705C82.3913 14.2012 82.37 14.4998 82.3273 14.7665H75.5913C75.6447 15.4705 75.906 16.0358 76.3753 16.4625C76.8447 16.8892 77.4207 17.1025 78.1033 17.1025C79.0847 17.1025 79.778 16.6918 80.1833 15.8705H82.1513C81.8847 16.6812 81.3993 17.3478 80.6953 17.8705C80.002 18.3825 79.138 18.6385 78.1033 18.6385C77.2607 18.6385 76.5033 18.4518 75.8313 18.0785C75.17 17.6945 74.6473 17.1612 74.2633 16.4785C73.89 15.7852 73.7033 14.9852 73.7033 14.0785C73.7033 13.1718 73.8847 12.3772 74.2473 11.6945C74.6207 11.0012 75.138 10.4678 75.7993 10.0945C76.4713 9.72117 77.2393 9.53451 78.1033 9.53451C78.9353 9.53451 79.6767 9.71584 80.3273 10.0785C80.978 10.4412 81.4847 10.9532 81.8473 11.6145C82.21 12.2652 82.3913 13.0172 82.3913 13.8705ZM80.4873 13.2945C80.4767 12.6225 80.2367 12.0838 79.7673 11.6785C79.298 11.2732 78.7167 11.0705 78.0233 11.0705C77.394 11.0705 76.8553 11.2732 76.4073 11.6785C75.9593 12.0732 75.6927 12.6118 75.6073 13.2945H80.4873ZM87.3863 18.6385C86.693 18.6385 86.069 18.5158 85.5143 18.2705C84.9703 18.0145 84.5383 17.6732 84.2183 17.2465C83.8983 16.8092 83.7277 16.3238 83.7063 15.7905H85.5943C85.6263 16.1638 85.8023 16.4785 86.1223 16.7345C86.453 16.9798 86.8637 17.1025 87.3543 17.1025C87.8663 17.1025 88.261 17.0065 88.5383 16.8145C88.8263 16.6118 88.9703 16.3558 88.9703 16.0465C88.9703 15.7158 88.8103 15.4705 88.4903 15.3105C88.181 15.1505 87.685 14.9745 87.0023 14.7825C86.341 14.6012 85.8023 14.4252 85.3863 14.2545C84.9703 14.0838 84.6077 13.8225 84.2983 13.4705C83.9997 13.1185 83.8503 12.6545 83.8503 12.0785C83.8503 11.6092 83.989 11.1825 84.2663 10.7985C84.5437 10.4038 84.9383 10.0945 85.4503 9.87051C85.973 9.64651 86.5703 9.53451 87.2423 9.53451C88.245 9.53451 89.0503 9.79051 89.6583 10.3025C90.277 10.8038 90.6077 11.4918 90.6503 12.3665H88.8263C88.7943 11.9718 88.6343 11.6572 88.3463 11.4225C88.0583 11.1878 87.669 11.0705 87.1783 11.0705C86.6983 11.0705 86.3303 11.1612 86.0743 11.3425C85.8183 11.5238 85.6903 11.7638 85.6903 12.0625C85.6903 12.2972 85.7757 12.4945 85.9463 12.6545C86.117 12.8145 86.325 12.9425 86.5703 13.0385C86.8157 13.1238 87.1783 13.2358 87.6583 13.3745C88.2983 13.5452 88.821 13.7212 89.2263 13.9025C89.6423 14.0732 89.9997 14.3292 90.2983 14.6705C90.597 15.0118 90.7517 15.4652 90.7623 16.0305C90.7623 16.5318 90.6237 16.9798 90.3463 17.3745C90.069 17.7692 89.6743 18.0785 89.1623 18.3025C88.661 18.5265 88.069 18.6385 87.3863 18.6385ZM95.9332 18.6385C95.2399 18.6385 94.6159 18.5158 94.0612 18.2705C93.5172 18.0145 93.0852 17.6732 92.7652 17.2465C92.4452 16.8092 92.2745 16.3238 92.2532 15.7905H94.1412C94.1732 16.1638 94.3492 16.4785 94.6692 16.7345C94.9999 16.9798 95.4105 17.1025 95.9012 17.1025C96.4132 17.1025 96.8079 17.0065 97.0852 16.8145C97.3732 16.6118 97.5172 16.3558 97.5172 16.0465C97.5172 15.7158 97.3572 15.4705 97.0372 15.3105C96.7279 15.1505 96.2319 14.9745 95.5492 14.7825C94.8879 14.6012 94.3492 14.4252 93.9332 14.2545C93.5172 14.0838 93.1545 13.8225 92.8452 13.4705C92.5465 13.1185 92.3972 12.6545 92.3972 12.0785C92.3972 11.6092 92.5359 11.1825 92.8132 10.7985C93.0905 10.4038 93.4852 10.0945 93.9972 9.87051C94.5199 9.64651 95.1172 9.53451 95.7892 9.53451C96.7919 9.53451 97.5972 9.79051 98.2052 10.3025C98.8239 10.8038 99.1545 11.4918 99.1972 12.3665H97.3732C97.3412 11.9718 97.1812 11.6572 96.8932 11.4225C96.6052 11.1878 96.2159 11.0705 95.7252 11.0705C95.2452 11.0705 94.8772 11.1612 94.6212 11.3425C94.3652 11.5238 94.2372 11.7638 94.2372 12.0625C94.2372 12.2972 94.3225 12.4945 94.4932 12.6545C94.6639 12.8145 94.8719 12.9425 95.1172 13.0385C95.3625 13.1238 95.7252 13.2358 96.2052 13.3745C96.8452 13.5452 97.3679 13.7212 97.7732 13.9025C98.1892 14.0732 98.5465 14.3292 98.8452 14.6705C99.1439 15.0118 99.2985 15.4652 99.3092 16.0305C99.3092 16.5318 99.1705 16.9798 98.8932 17.3745C98.6159 17.7692 98.2212 18.0785 97.7092 18.3025C97.2079 18.5265 96.6159 18.6385 95.9332 18.6385ZM105.104 18.6385C104.272 18.6385 103.52 18.4518 102.848 18.0785C102.176 17.6945 101.648 17.1612 101.264 16.4785C100.88 15.7852 100.688 14.9852 100.688 14.0785C100.688 13.1825 100.885 12.3878 101.28 11.6945C101.675 11.0012 102.213 10.4678 102.896 10.0945C103.579 9.72117 104.341 9.53451 105.184 9.53451C106.027 9.53451 106.789 9.72117 107.472 10.0945C108.155 10.4678 108.693 11.0012 109.088 11.6945C109.483 12.3878 109.68 13.1825 109.68 14.0785C109.68 14.9745 109.477 15.7692 109.072 16.4625C108.667 17.1558 108.112 17.6945 107.408 18.0785C106.715 18.4518 105.947 18.6385 105.104 18.6385ZM105.104 17.0545C105.573 17.0545 106.011 16.9425 106.416 16.7185C106.832 16.4945 107.168 16.1585 107.424 15.7105C107.68 15.2625 107.808 14.7185 107.808 14.0785C107.808 13.4385 107.685 12.8998 107.44 12.4625C107.195 12.0145 106.869 11.6785 106.464 11.4545C106.059 11.2305 105.621 11.1185 105.152 11.1185C104.683 11.1185 104.245 11.2305 103.84 11.4545C103.445 11.6785 103.131 12.0145 102.896 12.4625C102.661 12.8998 102.544 13.4385 102.544 14.0785C102.544 15.0278 102.784 15.7638 103.264 16.2865C103.755 16.7985 104.368 17.0545 105.104 17.0545ZM115.931 9.53451C116.625 9.53451 117.243 9.67851 117.787 9.96651C118.342 10.2545 118.774 10.6812 119.083 11.2465C119.393 11.8118 119.547 12.4945 119.547 13.2945V18.4945H117.739V13.5665C117.739 12.7772 117.542 12.1745 117.147 11.7585C116.753 11.3318 116.214 11.1185 115.531 11.1185C114.849 11.1185 114.305 11.3318 113.899 11.7585C113.505 12.1745 113.307 12.7772 113.307 13.5665V18.4945H111.483V9.67851H113.307V10.6865C113.606 10.3238 113.985 10.0412 114.443 9.83851C114.913 9.63584 115.409 9.53451 115.931 9.53451Z" fill="#515151"/>
<path d="M22.5801 18.2345V6.16445C22.5801 4.96445 21.6001 4.07445 20.4101 4.17445H20.3501C18.2501 4.35445 15.0601 5.42445 13.2801 6.54445L13.1101 6.65445C12.8201 6.83445 12.3401 6.83445 12.0501 6.65445L11.8001 6.50445C10.0201 5.39445 6.84008 4.33445 4.74008 4.16445C3.55008 4.06445 2.58008 4.96445 2.58008 6.15445V18.2345C2.58008 19.1945 3.36008 20.0945 4.32008 20.2145L4.61008 20.2545C6.78008 20.5445 10.1301 21.6445 12.0501 22.6945L12.0901 22.7145C12.3601 22.8645 12.7901 22.8645 13.0501 22.7145C14.9701 21.6545 18.3301 20.5445 20.5101 20.2545L20.8401 20.2145C21.8001 20.0945 22.5801 19.1945 22.5801 18.2345Z" stroke="#FFD600" stroke-width="1.5" stroke-linecap="round" stroke-linejoin="round"/>
<path d="M12.5801 6.9845V21.9845" stroke="#FFD600" stroke-width="1.5" stroke-linecap="round" stroke-linejoin="round"/>
<path d="M8.33008 9.9845H6.08008" stroke="#FFD600" stroke-width="1.5" stroke-linecap="round" stroke-linejoin="round"/>
<path d="M9.08008 12.9845H6.08008" stroke="#FFD600" stroke-width="1.5" stroke-linecap="round" stroke-linejoin="round"/>
</svg>
