<svg width="96" height="17" viewBox="0 0 96 17" fill="none" xmlns="http://www.w3.org/2000/svg">
<path opacity="0.99" d="M9.31382 2.59011L10.8123 5.6015C10.9227 5.81968 11.1335 5.97119 11.3765 6.00486L14.7424 6.49509C14.939 6.5227 15.1174 6.6264 15.2379 6.78465C15.357 6.94087 15.4082 7.13885 15.3793 7.33346C15.3557 7.49507 15.2796 7.64456 15.1632 7.75904L12.7242 10.1233C12.5458 10.2883 12.465 10.5327 12.5081 10.7718L13.1086 14.0956C13.1725 14.497 12.9066 14.8754 12.5081 14.9515C12.3438 14.9778 12.1755 14.9501 12.0274 14.8747L9.02502 13.3104C8.80219 13.198 8.53898 13.198 8.31615 13.3104L5.31372 14.8747C4.94482 15.0707 4.48772 14.9374 4.2824 14.5737C4.20633 14.4289 4.1794 14.264 4.20431 14.103L4.80479 10.7785C4.84788 10.5401 4.76642 10.2943 4.5887 10.1294L2.14973 7.76645C1.85959 7.48632 1.85084 7.02505 2.13021 6.73482C2.13627 6.72875 2.143 6.72202 2.14973 6.71529C2.26552 6.59744 2.41766 6.5227 2.58192 6.50317L5.94787 6.01227C6.19022 5.97793 6.40093 5.82776 6.512 5.60824L7.95667 2.59011C8.08525 2.33153 8.35183 2.17059 8.6413 2.17733H8.73151C8.98261 2.20763 9.2014 2.36318 9.31382 2.59011Z" fill="#FFC331"/>
<path d="M8.65135 13.2266C8.52098 13.2306 8.39397 13.2657 8.27973 13.3283L5.29198 14.889C4.92641 15.0635 4.48893 14.9281 4.28397 14.5785C4.20803 14.4357 4.18048 14.272 4.20602 14.1117L4.80276 10.7942C4.84308 10.5531 4.76244 10.3079 4.58705 10.1381L2.14699 7.77584C1.85735 7.49225 1.85197 7.0268 2.13556 6.73647C2.13959 6.73243 2.14295 6.72907 2.14699 6.7257C2.26257 6.61119 2.41176 6.53574 2.57237 6.51217L5.94114 6.0164C6.18508 5.98541 6.39676 5.83318 6.50428 5.61224L7.96859 2.55613C8.10769 2.30959 8.37448 2.16275 8.65672 2.17824C8.65135 2.3783 8.65135 13.0905 8.65135 13.2266Z" fill="#FFC331"/>
<path opacity="0.99" d="M29.1959 2.59011L30.7568 5.6015C30.8718 5.81968 31.0913 5.97119 31.3444 6.00486L34.8506 6.49509C35.0554 6.5227 35.2412 6.6264 35.3668 6.78465C35.4909 6.94087 35.5442 7.13885 35.514 7.33346C35.4895 7.49507 35.4102 7.64456 35.2889 7.75904L32.7483 10.1233C32.5625 10.2883 32.4784 10.5327 32.5232 10.7718L33.1487 14.0956C33.2154 14.497 32.9384 14.8754 32.5232 14.9515C32.3521 14.9778 32.1768 14.9501 32.0225 14.8747L28.895 13.3104C28.6629 13.198 28.3887 13.198 28.1566 13.3104L25.0291 14.8747C24.6448 15.0707 24.1687 14.9374 23.9548 14.5737C23.8755 14.4289 23.8475 14.264 23.8734 14.103L24.4989 10.7785C24.5438 10.5401 24.459 10.2943 24.2739 10.1294L21.7333 7.76645C21.431 7.48632 21.4219 7.02505 21.7129 6.73482C21.7192 6.72875 21.7262 6.72202 21.7333 6.71529C21.8539 6.59744 22.0124 6.5227 22.1835 6.50317L25.6897 6.01227C25.9421 5.97793 26.1616 5.82776 26.2773 5.60824L27.7822 2.59011C27.9161 2.33153 28.1938 2.17059 28.4953 2.17733H28.5893C28.8508 2.20763 29.0787 2.36318 29.1959 2.59011Z" fill="#FFC331"/>
<path d="M28.5058 13.2266C28.37 13.2306 28.2377 13.2657 28.1187 13.3283L25.0064 14.889C24.6256 15.0635 24.1699 14.9281 23.9564 14.5785C23.8773 14.4357 23.8486 14.272 23.8752 14.1117L24.4968 10.7942C24.5388 10.5531 24.4548 10.3079 24.2721 10.1381L21.7304 7.77584C21.4287 7.49225 21.4231 7.0268 21.7185 6.73647C21.7227 6.73243 21.7262 6.72907 21.7304 6.7257C21.8508 6.61119 22.0062 6.53574 22.1735 6.51217L25.6826 6.0164C25.9367 5.98541 26.1573 5.83318 26.2693 5.61224L27.7946 2.55613C27.9395 2.30959 28.2174 2.16275 28.5114 2.17824C28.5058 2.3783 28.5058 13.0905 28.5058 13.2266Z" fill="#FFC331"/>
<path opacity="0.99" d="M48.7142 2.59011L50.2751 5.6015C50.3901 5.81968 50.6096 5.97119 50.8628 6.00486L54.369 6.49509C54.5737 6.5227 54.7595 6.6264 54.8851 6.78465C55.0092 6.94087 55.0625 7.13885 55.0323 7.33346C55.0078 7.49507 54.9285 7.64456 54.8072 7.75904L52.2666 10.1233C52.0808 10.2883 51.9967 10.5327 52.0415 10.7718L52.667 14.0956C52.7337 14.497 52.4567 14.8754 52.0415 14.9515C51.8704 14.9778 51.6951 14.9501 51.5409 14.8747L48.4133 13.3104C48.1812 13.198 47.907 13.198 47.6749 13.3104L44.5474 14.8747C44.1631 15.0707 43.687 14.9374 43.4731 14.5737C43.3939 14.4289 43.3658 14.264 43.3918 14.103L44.0173 10.7785C44.0621 10.5401 43.9773 10.2943 43.7922 10.1294L41.2516 7.76645C40.9493 7.48632 40.9402 7.02505 41.2312 6.73482C41.2375 6.72875 41.2446 6.72202 41.2516 6.71529C41.3722 6.59744 41.5307 6.5227 41.7018 6.50317L45.208 6.01227C45.4604 5.97793 45.6799 5.82776 45.7956 5.60824L47.3005 2.59011C47.4344 2.33153 47.7121 2.17059 48.0136 2.17733H48.1076C48.3692 2.20763 48.5971 2.36318 48.7142 2.59011Z" fill="#FFC331"/>
<path d="M48.0241 13.2266C47.8883 13.2306 47.756 13.2657 47.637 13.3283L44.5247 14.889C44.1439 15.0635 43.6882 14.9281 43.4747 14.5785C43.3956 14.4357 43.3669 14.272 43.3935 14.1117L44.0151 10.7942C44.0571 10.5531 43.9731 10.3079 43.7904 10.1381L41.2487 7.77584C40.947 7.49225 40.9414 7.0268 41.2368 6.73647C41.241 6.73243 41.2445 6.72907 41.2487 6.7257C41.3691 6.61119 41.5245 6.53574 41.6918 6.51217L45.201 6.0164C45.4551 5.98541 45.6756 5.83318 45.7876 5.61224L47.3129 2.55613C47.4578 2.30959 47.7357 2.16275 48.0297 2.17824C48.0241 2.3783 48.0241 13.0905 48.0241 13.2266Z" fill="#FFC331"/>
<path opacity="0.99" d="M68.2325 2.59011L69.7934 5.6015C69.9084 5.81968 70.1279 5.97119 70.3811 6.00486L73.8873 6.49509C74.092 6.5227 74.2779 6.6264 74.4034 6.78465C74.5275 6.94087 74.5808 7.13885 74.5506 7.33346C74.5261 7.49507 74.4469 7.64456 74.3255 7.75904L71.785 10.1233C71.5991 10.2883 71.515 10.5327 71.5599 10.7718L72.1854 14.0956C72.252 14.497 71.975 14.8754 71.5599 14.9515C71.3888 14.9778 71.2134 14.9501 71.0592 14.8747L67.9316 13.3104C67.6995 13.198 67.4253 13.198 67.1932 13.3104L64.0657 14.8747C63.6814 15.0707 63.2053 14.9374 62.9914 14.5737C62.9122 14.4289 62.8841 14.264 62.9101 14.103L63.5356 10.7785C63.5805 10.5401 63.4956 10.2943 63.3105 10.1294L60.7699 7.76645C60.4676 7.48632 60.4585 7.02505 60.7495 6.73482C60.7559 6.72875 60.7629 6.72202 60.7699 6.71529C60.8905 6.59744 61.049 6.5227 61.2201 6.50317L64.7263 6.01227C64.9787 5.97793 65.1982 5.82776 65.3139 5.60824L66.8188 2.59011C66.9527 2.33153 67.2304 2.17059 67.5319 2.17733H67.6259C67.8875 2.20763 68.1154 2.36318 68.2325 2.59011Z" fill="#FFC331"/>
<path d="M67.5424 13.2266C67.4066 13.2306 67.2743 13.2657 67.1553 13.3283L64.0431 14.889C63.6623 15.0635 63.2065 14.9281 62.993 14.5785C62.9139 14.4357 62.8852 14.272 62.9118 14.1117L63.5335 10.7942C63.5755 10.5531 63.4915 10.3079 63.3088 10.1381L60.767 7.77584C60.4653 7.49225 60.4597 7.0268 60.7551 6.73647C60.7593 6.73243 60.7628 6.72907 60.767 6.7257C60.8874 6.61119 61.0428 6.53574 61.2101 6.51217L64.7193 6.0164C64.9734 5.98541 65.1939 5.83318 65.3059 5.61224L66.8312 2.55613C66.9761 2.30959 67.254 2.16275 67.548 2.17824C67.5424 2.3783 67.5424 13.0905 67.5424 13.2266Z" fill="#FFC331"/>
<path opacity="0.99" d="M88.0599 2.59011L89.5584 5.6015C89.6688 5.81968 89.8795 5.97119 90.1226 6.00486L93.4885 6.49509C93.6851 6.5227 93.8635 6.6264 93.984 6.78465C94.1031 6.94087 94.1543 7.13885 94.1254 7.33346C94.1018 7.49507 94.0257 7.64456 93.9093 7.75904L91.4703 10.1233C91.2919 10.2883 91.2111 10.5327 91.2542 10.7718L91.8547 14.0956C91.9186 14.497 91.6527 14.8754 91.2542 14.9515C91.0899 14.9778 90.9216 14.9501 90.7735 14.8747L87.7711 13.3104C87.5483 13.198 87.2851 13.198 87.0622 13.3104L84.0598 14.8747C83.6909 15.0707 83.2338 14.9374 83.0285 14.5737C82.9524 14.4289 82.9255 14.264 82.9504 14.103L83.5509 10.7785C83.594 10.5401 83.5125 10.2943 83.3348 10.1294L80.8958 7.76645C80.6057 7.48632 80.5969 7.02505 80.8763 6.73482C80.8824 6.72875 80.8891 6.72202 80.8958 6.71529C81.0116 6.59744 81.1638 6.5227 81.328 6.50317L84.694 6.01227C84.9363 5.97793 85.147 5.82776 85.2581 5.60824L86.7028 2.59011C86.8313 2.33153 87.0979 2.17059 87.3874 2.17733H87.4776C87.7287 2.20763 87.9475 2.36318 88.0599 2.59011Z" fill="#515151"/>
<path d="M87.3974 13.2266C87.2671 13.2306 87.1401 13.2657 87.0258 13.3283L84.0381 14.889C83.6725 15.0635 83.235 14.9281 83.0301 14.5785C82.9541 14.4357 82.9266 14.272 82.9521 14.1117L83.5489 10.7942C83.5892 10.5531 83.5085 10.3079 83.3331 10.1381L80.8931 7.77584C80.6034 7.49225 80.5981 7.0268 80.8817 6.73647C80.8857 6.73243 80.889 6.72907 80.8931 6.7257C81.0087 6.61119 81.1579 6.53574 81.3185 6.51217L84.6872 6.0164C84.9312 5.98541 85.1429 5.83318 85.2504 5.61224L86.7147 2.55613C86.8538 2.30959 87.1206 2.16275 87.4028 2.17824C87.3974 2.3783 87.3974 13.0905 87.3974 13.2266Z" fill="#515151"/>
</svg>
