<svg width="158" height="24" viewBox="0 0 158 24" fill="none" xmlns="http://www.w3.org/2000/svg">
<path d="M8.944 8.704H3.952V10.912C4.16533 10.6773 4.464 10.4853 4.848 10.336C5.232 10.1867 5.648 10.112 6.096 10.112C6.896 10.112 7.55733 10.2933 8.08 10.656C8.61333 11.0187 9.00267 11.488 9.248 12.064C9.49333 12.64 9.616 13.264 9.616 13.936C9.616 15.184 9.264 16.176 8.56 16.912C7.856 17.6373 6.864 18 5.584 18C4.73067 18 3.98933 17.856 3.36 17.568C2.73067 17.2693 2.24533 16.8587 1.904 16.336C1.56267 15.8133 1.376 15.2107 1.344 14.528H4.016C4.08 14.8587 4.23467 15.136 4.48 15.36C4.72533 15.5733 5.06133 15.68 5.488 15.68C5.98933 15.68 6.36267 15.52 6.608 15.2C6.85333 14.88 6.976 14.4533 6.976 13.92C6.976 13.3973 6.848 12.9973 6.592 12.72C6.336 12.4427 5.96267 12.304 5.472 12.304C5.10933 12.304 4.81067 12.3947 4.576 12.576C4.34133 12.7467 4.18667 12.976 4.112 13.264H1.472V6.304H8.944V8.704ZM12.6783 18.128C12.1983 18.128 11.8036 17.9893 11.4943 17.712C11.1956 17.424 11.0463 17.072 11.0463 16.656C11.0463 16.2293 11.1956 15.872 11.4943 15.584C11.8036 15.296 12.1983 15.152 12.6783 15.152C13.1476 15.152 13.5316 15.296 13.8303 15.584C14.1396 15.872 14.2943 16.2293 14.2943 16.656C14.2943 17.072 14.1396 17.424 13.8303 17.712C13.5316 17.9893 13.1476 18.128 12.6783 18.128ZM15.6419 12C15.6419 10.1653 15.9939 8.72 16.6979 7.664C17.4125 6.608 18.5592 6.08 20.1379 6.08C21.7165 6.08 22.8579 6.608 23.5619 7.664C24.2765 8.72 24.6339 10.1653 24.6339 12C24.6339 13.856 24.2765 15.312 23.5619 16.368C22.8579 17.424 21.7165 17.952 20.1379 17.952C18.5592 17.952 17.4125 17.424 16.6979 16.368C15.9939 15.312 15.6419 13.856 15.6419 12ZM21.9459 12C21.9459 10.9227 21.8285 10.096 21.5939 9.52C21.3592 8.93333 20.8739 8.64 20.1379 8.64C19.4019 8.64 18.9165 8.93333 18.6819 9.52C18.4472 10.096 18.3299 10.9227 18.3299 12C18.3299 12.7253 18.3725 13.328 18.4579 13.808C18.5432 14.2773 18.7139 14.6613 18.9699 14.96C19.2365 15.248 19.6259 15.392 20.1379 15.392C20.6499 15.392 21.0339 15.248 21.2899 14.96C21.5565 14.6613 21.7325 14.2773 21.8179 13.808C21.9032 13.328 21.9459 12.7253 21.9459 12Z" fill="white"/>
<path opacity="0.99" d="M49.6385 3.11361L51.9786 7.58789C52.151 7.91205 52.4801 8.13717 52.8596 8.18719L58.1159 8.91556C58.4229 8.95658 58.7015 9.11066 58.8896 9.34578C59.0757 9.5779 59.1556 9.87205 59.1104 10.1612C59.0736 10.4013 58.9548 10.6234 58.7729 10.7935L54.9642 14.3063C54.6856 14.5514 54.5595 14.9146 54.6268 15.2698L55.5645 20.2083C55.6644 20.8046 55.2491 21.3669 54.6268 21.4799C54.3703 21.519 54.1074 21.4779 53.8762 21.3659L49.1875 19.0417C48.8396 18.8746 48.4285 18.8746 48.0806 19.0417L43.3919 21.3659C42.8158 21.657 42.102 21.4589 41.7814 20.9187C41.6626 20.7036 41.6206 20.4584 41.6595 20.2193L42.5972 15.2798C42.6645 14.9256 42.5373 14.5604 42.2597 14.3153L38.451 10.8045C37.9979 10.3883 37.9843 9.70296 38.4205 9.27174C38.43 9.26274 38.4405 9.25273 38.451 9.24273C38.6318 9.06764 38.8694 8.95658 39.1259 8.92757L44.3822 8.1982C44.7607 8.14717 45.0897 7.92406 45.2632 7.59789L47.5192 3.11361C47.72 2.72942 48.1363 2.4903 48.5883 2.5003H48.7292C49.1213 2.54533 49.463 2.77644 49.6385 3.11361Z" fill="#FFC331"/>
<path d="M48.604 18.9171C48.4004 18.9231 48.2021 18.9752 48.0237 19.0682L43.358 21.3871C42.7871 21.6463 42.1039 21.4452 41.7839 20.9258C41.6653 20.7136 41.6223 20.4704 41.6621 20.2322L42.594 15.3031C42.657 14.9449 42.531 14.5806 42.2572 14.3284L38.4467 10.8185C37.9944 10.3971 37.986 9.70556 38.4289 9.27421C38.4352 9.2682 38.4404 9.2632 38.4467 9.2582C38.6272 9.08806 38.8602 8.97596 39.111 8.94094L44.3717 8.20433C44.7527 8.15829 45.0832 7.93211 45.2511 7.60384L47.5378 3.06312C47.755 2.69682 48.1717 2.47864 48.6124 2.50166C48.604 2.7989 48.604 18.7149 48.604 18.9171Z" fill="#FFC331"/>
<path opacity="0.99" d="M74.6385 3.11361L76.9786 7.58789C77.151 7.91205 77.4801 8.13717 77.8596 8.18719L83.1159 8.91556C83.4229 8.95658 83.7015 9.11066 83.8896 9.34578C84.0757 9.5779 84.1556 9.87205 84.1104 10.1612C84.0736 10.4013 83.9548 10.6234 83.7729 10.7935L79.9642 14.3063C79.6856 14.5514 79.5595 14.9146 79.6268 15.2698L80.5645 20.2083C80.6644 20.8046 80.2491 21.3669 79.6268 21.4799C79.3703 21.519 79.1074 21.4779 78.8762 21.3659L74.1875 19.0417C73.8396 18.8746 73.4285 18.8746 73.0806 19.0417L68.3919 21.3659C67.8158 21.657 67.102 21.4589 66.7814 20.9187C66.6626 20.7036 66.6206 20.4584 66.6595 20.2193L67.5972 15.2798C67.6645 14.9256 67.5373 14.5604 67.2597 14.3153L63.451 10.8045C62.9979 10.3883 62.9843 9.70296 63.4205 9.27174C63.43 9.26274 63.4405 9.25273 63.451 9.24273C63.6318 9.06764 63.8694 8.95658 64.1259 8.92757L69.3822 8.1982C69.7607 8.14717 70.0897 7.92406 70.2632 7.59789L72.5192 3.11361C72.72 2.72942 73.1363 2.4903 73.5883 2.5003H73.7292C74.1213 2.54533 74.463 2.77644 74.6385 3.11361Z" fill="#FFC331"/>
<path d="M73.604 18.9171C73.4004 18.9231 73.2021 18.9752 73.0237 19.0682L68.358 21.3871C67.7871 21.6463 67.1039 21.4452 66.7839 20.9258C66.6653 20.7136 66.6223 20.4704 66.6621 20.2322L67.594 15.3031C67.657 14.9449 67.531 14.5806 67.2572 14.3284L63.4467 10.8185C62.9944 10.3971 62.986 9.70556 63.4289 9.27421C63.4352 9.2682 63.4404 9.2632 63.4467 9.2582C63.6272 9.08806 63.8602 8.97596 64.111 8.94094L69.3717 8.20433C69.7527 8.15829 70.0832 7.93211 70.2511 7.60384L72.5378 3.06312C72.755 2.69682 73.1717 2.47864 73.6124 2.50166C73.604 2.7989 73.604 18.7149 73.604 18.9171Z" fill="#FFC331"/>
<path opacity="0.99" d="M97.6385 3.11361L99.9786 7.58789C100.151 7.91205 100.48 8.13717 100.86 8.18719L106.116 8.91556C106.423 8.95658 106.701 9.11066 106.89 9.34578C107.076 9.5779 107.156 9.87205 107.11 10.1612C107.074 10.4013 106.955 10.6234 106.773 10.7935L102.964 14.3063C102.686 14.5514 102.559 14.9146 102.627 15.2698L103.564 20.2083C103.664 20.8046 103.249 21.3669 102.627 21.4799C102.37 21.519 102.107 21.4779 101.876 21.3659L97.1875 19.0417C96.8396 18.8746 96.4285 18.8746 96.0806 19.0417L91.3919 21.3659C90.8158 21.657 90.102 21.4589 89.7814 20.9187C89.6626 20.7036 89.6206 20.4584 89.6595 20.2193L90.5972 15.2798C90.6645 14.9256 90.5373 14.5604 90.2597 14.3153L86.451 10.8045C85.9979 10.3883 85.9843 9.70296 86.4205 9.27174C86.43 9.26274 86.4405 9.25273 86.451 9.24273C86.6318 9.06764 86.8694 8.95658 87.1259 8.92757L92.3822 8.1982C92.7607 8.14717 93.0897 7.92406 93.2632 7.59789L95.5192 3.11361C95.72 2.72942 96.1363 2.4903 96.5883 2.5003H96.7292C97.1213 2.54533 97.463 2.77644 97.6385 3.11361Z" fill="#FFC331"/>
<path d="M96.604 18.9171C96.4004 18.9231 96.2021 18.9752 96.0237 19.0682L91.358 21.3871C90.7871 21.6463 90.1039 21.4452 89.7839 20.9258C89.6653 20.7136 89.6223 20.4704 89.6621 20.2322L90.594 15.3031C90.657 14.9449 90.531 14.5806 90.2572 14.3284L86.4467 10.8185C85.9944 10.3971 85.986 9.70556 86.4289 9.27421C86.4352 9.2682 86.4404 9.2632 86.4467 9.2582C86.6272 9.08806 86.8602 8.97596 87.111 8.94094L92.3717 8.20433C92.7527 8.15829 93.0832 7.93211 93.2511 7.60384L95.5378 3.06312C95.755 2.69682 96.1717 2.47864 96.6124 2.50166C96.604 2.7989 96.604 18.7149 96.604 18.9171Z" fill="#FFC331"/>
<path opacity="0.99" d="M120.639 3.11361L122.979 7.58789C123.151 7.91205 123.48 8.13717 123.86 8.18719L129.116 8.91556C129.423 8.95658 129.701 9.11066 129.89 9.34578C130.076 9.5779 130.156 9.87205 130.11 10.1612C130.074 10.4013 129.955 10.6234 129.773 10.7935L125.964 14.3063C125.686 14.5514 125.559 14.9146 125.627 15.2698L126.564 20.2083C126.664 20.8046 126.249 21.3669 125.627 21.4799C125.37 21.519 125.107 21.4779 124.876 21.3659L120.188 19.0417C119.84 18.8746 119.429 18.8746 119.081 19.0417L114.392 21.3659C113.816 21.657 113.102 21.4589 112.781 20.9187C112.663 20.7036 112.621 20.4584 112.659 20.2193L113.597 15.2798C113.664 14.9256 113.537 14.5604 113.26 14.3153L109.451 10.8045C108.998 10.3883 108.984 9.70296 109.421 9.27174C109.43 9.26274 109.44 9.25273 109.451 9.24273C109.632 9.06764 109.869 8.95658 110.126 8.92757L115.382 8.1982C115.761 8.14717 116.09 7.92406 116.263 7.59789L118.519 3.11361C118.72 2.72942 119.136 2.4903 119.588 2.5003H119.729C120.121 2.54533 120.463 2.77644 120.639 3.11361Z" fill="#FFC331"/>
<path d="M119.604 18.9171C119.4 18.9231 119.202 18.9752 119.024 19.0682L114.358 21.3871C113.787 21.6463 113.104 21.4452 112.784 20.9258C112.665 20.7136 112.622 20.4704 112.662 20.2322L113.594 15.3031C113.657 14.9449 113.531 14.5806 113.257 14.3284L109.447 10.8185C108.994 10.3971 108.986 9.70556 109.429 9.27421C109.435 9.2682 109.44 9.2632 109.447 9.2582C109.627 9.08806 109.86 8.97596 110.111 8.94094L115.372 8.20433C115.753 8.15829 116.083 7.93211 116.251 7.60384L118.538 3.06312C118.755 2.69682 119.172 2.47864 119.612 2.50166C119.604 2.7989 119.604 18.7149 119.604 18.9171Z" fill="#FFC331"/>
<path opacity="0.99" d="M145.639 3.11361L147.979 7.58789C148.151 7.91205 148.48 8.13717 148.86 8.18719L154.116 8.91556C154.423 8.95658 154.701 9.11066 154.89 9.34578C155.076 9.5779 155.156 9.87205 155.11 10.1612C155.074 10.4013 154.955 10.6234 154.773 10.7935L150.964 14.3063C150.686 14.5514 150.559 14.9146 150.627 15.2698L151.564 20.2083C151.664 20.8046 151.249 21.3669 150.627 21.4799C150.37 21.519 150.107 21.4779 149.876 21.3659L145.188 19.0417C144.84 18.8746 144.429 18.8746 144.081 19.0417L139.392 21.3659C138.816 21.657 138.102 21.4589 137.781 20.9187C137.663 20.7036 137.621 20.4584 137.659 20.2193L138.597 15.2798C138.664 14.9256 138.537 14.5604 138.26 14.3153L134.451 10.8045C133.998 10.3883 133.984 9.70296 134.421 9.27174C134.43 9.26274 134.44 9.25273 134.451 9.24273C134.632 9.06764 134.869 8.95658 135.126 8.92757L140.382 8.1982C140.761 8.14717 141.09 7.92406 141.263 7.59789L143.519 3.11361C143.72 2.72942 144.136 2.4903 144.588 2.5003H144.729C145.121 2.54533 145.463 2.77644 145.639 3.11361Z" fill="#FFC331"/>
<path d="M144.604 18.9171C144.4 18.9231 144.202 18.9752 144.024 19.0682L139.358 21.3871C138.787 21.6463 138.104 21.4452 137.784 20.9258C137.665 20.7136 137.622 20.4704 137.662 20.2322L138.594 15.3031C138.657 14.9449 138.531 14.5806 138.257 14.3284L134.447 10.8185C133.994 10.3971 133.986 9.70556 134.429 9.27421C134.435 9.2682 134.44 9.2632 134.447 9.2582C134.627 9.08806 134.86 8.97596 135.111 8.94094L140.372 8.20433C140.753 8.15829 141.083 7.93211 141.251 7.60384L143.538 3.06312C143.755 2.69682 144.172 2.47864 144.612 2.50166C144.604 2.7989 144.604 18.7149 144.604 18.9171Z" fill="#FFC331"/>
</svg>
