<svg width="296" height="48" viewBox="0 0 296 48" fill="none" xmlns="http://www.w3.org/2000/svg">
<path d="M0.864 16.728V11.64H9.728V35H4.032V16.728H0.864ZM13.4713 23C13.4713 19.3307 14.1753 16.44 15.5833 14.328C17.0126 12.216 19.3059 11.16 22.4633 11.16C25.6206 11.16 27.9033 12.216 29.3113 14.328C30.7406 16.44 31.4553 19.3307 31.4553 23C31.4553 26.712 30.7406 29.624 29.3113 31.736C27.9033 33.848 25.6206 34.904 22.4633 34.904C19.3059 34.904 17.0126 33.848 15.5833 31.736C14.1753 29.624 13.4713 26.712 13.4713 23ZM26.0793 23C26.0793 20.8453 25.8446 19.192 25.3753 18.04C24.9059 16.8667 23.9353 16.28 22.4633 16.28C20.9913 16.28 20.0206 16.8667 19.5513 18.04C19.0819 19.192 18.8473 20.8453 18.8473 23C18.8473 24.4507 18.9326 25.656 19.1033 26.616C19.2739 27.5547 19.6153 28.3227 20.1273 28.92C20.6606 29.496 21.4393 29.784 22.4633 29.784C23.4873 29.784 24.2553 29.496 24.7673 28.92C25.3006 28.3227 25.6526 27.5547 25.8233 26.616C25.9939 25.656 26.0793 24.4507 26.0793 23ZM51.1143 26.264H45.5463V31.96H40.3623V26.264H34.7943V21.368H40.3623V15.64H45.5463V21.368H51.1143V26.264Z" fill="white"/>
<path d="M72.44 21.88L68.76 28.968V33H66.936V28.968L63.24 21.88H65.272L67.848 27.336L70.424 21.88H72.44ZM81.9675 28.376C81.9675 28.7067 81.9462 29.0053 81.9035 29.272H75.1675C75.2208 29.976 75.4822 30.5413 75.9515 30.968C76.4208 31.3947 76.9968 31.608 77.6795 31.608C78.6608 31.608 79.3542 31.1973 79.7595 30.376H81.7275C81.4608 31.1867 80.9755 31.8533 80.2715 32.376C79.5782 32.888 78.7142 33.144 77.6795 33.144C76.8368 33.144 76.0795 32.9573 75.4075 32.584C74.7462 32.2 74.2235 31.6667 73.8395 30.984C73.4662 30.2907 73.2795 29.4907 73.2795 28.584C73.2795 27.6773 73.4608 26.8827 73.8235 26.2C74.1968 25.5067 74.7142 24.9733 75.3755 24.6C76.0475 24.2267 76.8155 24.04 77.6795 24.04C78.5115 24.04 79.2528 24.2213 79.9035 24.584C80.5542 24.9467 81.0608 25.4587 81.4235 26.12C81.7862 26.7707 81.9675 27.5227 81.9675 28.376ZM80.0635 27.8C80.0528 27.128 79.8128 26.5893 79.3435 26.184C78.8742 25.7787 78.2928 25.576 77.5995 25.576C76.9702 25.576 76.4315 25.7787 75.9835 26.184C75.5355 26.5787 75.2688 27.1173 75.1835 27.8H80.0635ZM83.1545 28.552C83.1545 27.6667 83.3358 26.8827 83.6985 26.2C84.0718 25.5173 84.5732 24.9893 85.2025 24.616C85.8425 24.232 86.5465 24.04 87.3145 24.04C88.0078 24.04 88.6105 24.1787 89.1225 24.456C89.6452 24.7227 90.0612 25.0587 90.3705 25.464V24.184H92.2105V33H90.3705V31.688C90.0612 32.104 89.6398 32.4507 89.1065 32.728C88.5732 33.0053 87.9652 33.144 87.2825 33.144C86.5252 33.144 85.8318 32.952 85.2025 32.568C84.5732 32.1733 84.0718 31.6293 83.6985 30.936C83.3358 30.232 83.1545 29.4373 83.1545 28.552ZM90.3705 28.584C90.3705 27.976 90.2425 27.448 89.9865 27C89.7412 26.552 89.4158 26.2107 89.0105 25.976C88.6052 25.7413 88.1678 25.624 87.6985 25.624C87.2292 25.624 86.7918 25.7413 86.3865 25.976C85.9812 26.2 85.6505 26.536 85.3945 26.984C85.1492 27.4213 85.0265 27.944 85.0265 28.552C85.0265 29.16 85.1492 29.6933 85.3945 30.152C85.6505 30.6107 85.9812 30.9627 86.3865 31.208C86.8025 31.4427 87.2398 31.56 87.6985 31.56C88.1678 31.56 88.6052 31.4427 89.0105 31.208C89.4158 30.9733 89.7412 30.632 89.9865 30.184C90.2425 29.7253 90.3705 29.192 90.3705 28.584ZM96.4303 25.464C96.6969 25.016 97.0489 24.6693 97.4863 24.424C97.9343 24.168 98.4623 24.04 99.0703 24.04V25.928H98.6063C97.8916 25.928 97.3476 26.1093 96.9743 26.472C96.6116 26.8347 96.4303 27.464 96.4303 28.36V33H94.6063V24.184H96.4303V25.464ZM103.947 33.144C103.254 33.144 102.63 33.0213 102.075 32.776C101.531 32.52 101.099 32.1787 100.779 31.752C100.459 31.3147 100.288 30.8293 100.267 30.296H102.155C102.187 30.6693 102.363 30.984 102.683 31.24C103.014 31.4853 103.424 31.608 103.915 31.608C104.427 31.608 104.822 31.512 105.099 31.32C105.387 31.1173 105.531 30.8613 105.531 30.552C105.531 30.2213 105.371 29.976 105.051 29.816C104.742 29.656 104.246 29.48 103.563 29.288C102.902 29.1067 102.363 28.9307 101.947 28.76C101.531 28.5893 101.168 28.328 100.859 27.976C100.56 27.624 100.411 27.16 100.411 26.584C100.411 26.1147 100.55 25.688 100.827 25.304C101.104 24.9093 101.499 24.6 102.011 24.376C102.534 24.152 103.131 24.04 103.803 24.04C104.806 24.04 105.611 24.296 106.219 24.808C106.838 25.3093 107.168 25.9973 107.211 26.872H105.387C105.355 26.4773 105.195 26.1627 104.907 25.928C104.619 25.6933 104.23 25.576 103.739 25.576C103.259 25.576 102.891 25.6667 102.635 25.848C102.379 26.0293 102.251 26.2693 102.251 26.568C102.251 26.8027 102.336 27 102.507 27.16C102.678 27.32 102.886 27.448 103.131 27.544C103.376 27.6293 103.739 27.7413 104.219 27.88C104.859 28.0507 105.382 28.2267 105.787 28.408C106.203 28.5787 106.56 28.8347 106.859 29.176C107.158 29.5173 107.312 29.9707 107.323 30.536C107.323 31.0373 107.184 31.4853 106.907 31.88C106.63 32.2747 106.235 32.584 105.723 32.808C105.222 33.032 104.63 33.144 103.947 33.144ZM117.274 33.144C116.442 33.144 115.69 32.9573 115.018 32.584C114.346 32.2 113.818 31.6667 113.434 30.984C113.05 30.2907 112.858 29.4907 112.858 28.584C112.858 27.688 113.055 26.8933 113.45 26.2C113.845 25.5067 114.383 24.9733 115.066 24.6C115.749 24.2267 116.511 24.04 117.354 24.04C118.197 24.04 118.959 24.2267 119.642 24.6C120.325 24.9733 120.863 25.5067 121.258 26.2C121.653 26.8933 121.85 27.688 121.85 28.584C121.85 29.48 121.647 30.2747 121.242 30.968C120.837 31.6613 120.282 32.2 119.578 32.584C118.885 32.9573 118.117 33.144 117.274 33.144ZM117.274 31.56C117.743 31.56 118.181 31.448 118.586 31.224C119.002 31 119.338 30.664 119.594 30.216C119.85 29.768 119.978 29.224 119.978 28.584C119.978 27.944 119.855 27.4053 119.61 26.968C119.365 26.52 119.039 26.184 118.634 25.96C118.229 25.736 117.791 25.624 117.322 25.624C116.853 25.624 116.415 25.736 116.01 25.96C115.615 26.184 115.301 26.52 115.066 26.968C114.831 27.4053 114.714 27.944 114.714 28.584C114.714 29.5333 114.954 30.2693 115.434 30.792C115.925 31.304 116.538 31.56 117.274 31.56ZM127.349 25.672H125.717V33H123.877V25.672H122.837V24.184H123.877V23.56C123.877 22.5467 124.144 21.8107 124.677 21.352C125.221 20.8827 126.069 20.648 127.221 20.648V22.168C126.666 22.168 126.277 22.2747 126.053 22.488C125.829 22.6907 125.717 23.048 125.717 23.56V24.184H127.349V25.672ZM141.202 28.376C141.202 28.7067 141.181 29.0053 141.138 29.272H134.402C134.455 29.976 134.717 30.5413 135.186 30.968C135.655 31.3947 136.231 31.608 136.914 31.608C137.895 31.608 138.589 31.1973 138.994 30.376H140.962C140.695 31.1867 140.21 31.8533 139.506 32.376C138.813 32.888 137.949 33.144 136.914 33.144C136.071 33.144 135.314 32.9573 134.642 32.584C133.981 32.2 133.458 31.6667 133.074 30.984C132.701 30.2907 132.514 29.4907 132.514 28.584C132.514 27.6773 132.695 26.8827 133.058 26.2C133.431 25.5067 133.949 24.9733 134.61 24.6C135.282 24.2267 136.05 24.04 136.914 24.04C137.746 24.04 138.487 24.2213 139.138 24.584C139.789 24.9467 140.295 25.4587 140.658 26.12C141.021 26.7707 141.202 27.5227 141.202 28.376ZM139.298 27.8C139.287 27.128 139.047 26.5893 138.578 26.184C138.109 25.7787 137.527 25.576 136.834 25.576C136.205 25.576 135.666 25.7787 135.218 26.184C134.77 26.5787 134.503 27.1173 134.418 27.8H139.298ZM146.773 28.536L149.621 33H147.557L145.653 30.008L143.861 33H141.957L144.805 28.664L141.957 24.184H144.021L145.925 27.176L147.717 24.184H149.621L146.773 28.536ZM152.805 25.48C153.115 25.0747 153.536 24.7333 154.069 24.456C154.603 24.1787 155.205 24.04 155.877 24.04C156.645 24.04 157.344 24.232 157.973 24.616C158.613 24.9893 159.115 25.5173 159.477 26.2C159.84 26.8827 160.021 27.6667 160.021 28.552C160.021 29.4373 159.84 30.232 159.477 30.936C159.115 31.6293 158.613 32.1733 157.973 32.568C157.344 32.952 156.645 33.144 155.877 33.144C155.205 33.144 154.608 33.0107 154.085 32.744C153.563 32.4667 153.136 32.1253 152.805 31.72V37.192H150.981V24.184H152.805V25.48ZM158.165 28.552C158.165 27.944 158.037 27.4213 157.781 26.984C157.536 26.536 157.205 26.2 156.789 25.976C156.384 25.7413 155.947 25.624 155.477 25.624C155.019 25.624 154.581 25.7413 154.165 25.976C153.76 26.2107 153.429 26.552 153.173 27C152.928 27.448 152.805 27.976 152.805 28.584C152.805 29.192 152.928 29.7253 153.173 30.184C153.429 30.632 153.76 30.9733 154.165 31.208C154.581 31.4427 155.019 31.56 155.477 31.56C155.947 31.56 156.384 31.4427 156.789 31.208C157.205 30.9627 157.536 30.6107 157.781 30.152C158.037 29.6933 158.165 29.16 158.165 28.552ZM169.905 28.376C169.905 28.7067 169.884 29.0053 169.841 29.272H163.105C163.158 29.976 163.42 30.5413 163.889 30.968C164.358 31.3947 164.934 31.608 165.617 31.608C166.598 31.608 167.292 31.1973 167.697 30.376H169.665C169.398 31.1867 168.913 31.8533 168.209 32.376C167.516 32.888 166.652 33.144 165.617 33.144C164.774 33.144 164.017 32.9573 163.345 32.584C162.684 32.2 162.161 31.6667 161.777 30.984C161.404 30.2907 161.217 29.4907 161.217 28.584C161.217 27.6773 161.398 26.8827 161.761 26.2C162.134 25.5067 162.652 24.9733 163.313 24.6C163.985 24.2267 164.753 24.04 165.617 24.04C166.449 24.04 167.19 24.2213 167.841 24.584C168.492 24.9467 168.998 25.4587 169.361 26.12C169.724 26.7707 169.905 27.5227 169.905 28.376ZM168.001 27.8C167.99 27.128 167.75 26.5893 167.281 26.184C166.812 25.7787 166.23 25.576 165.537 25.576C164.908 25.576 164.369 25.7787 163.921 26.184C163.473 26.5787 163.206 27.1173 163.121 27.8H168.001ZM173.524 25.464C173.791 25.016 174.143 24.6693 174.58 24.424C175.028 24.168 175.556 24.04 176.164 24.04V25.928H175.7C174.985 25.928 174.441 26.1093 174.068 26.472C173.705 26.8347 173.524 27.464 173.524 28.36V33H171.7V24.184H173.524V25.464ZM178.769 23.016C178.438 23.016 178.161 22.904 177.937 22.68C177.713 22.456 177.601 22.1787 177.601 21.848C177.601 21.5173 177.713 21.24 177.937 21.016C178.161 20.792 178.438 20.68 178.769 20.68C179.089 20.68 179.361 20.792 179.585 21.016C179.809 21.24 179.921 21.5173 179.921 21.848C179.921 22.1787 179.809 22.456 179.585 22.68C179.361 22.904 179.089 23.016 178.769 23.016ZM179.665 24.184V33H177.841V24.184H179.665ZM190.139 28.376C190.139 28.7067 190.118 29.0053 190.075 29.272H183.339C183.393 29.976 183.654 30.5413 184.123 30.968C184.593 31.3947 185.169 31.608 185.851 31.608C186.833 31.608 187.526 31.1973 187.931 30.376H189.899C189.633 31.1867 189.147 31.8533 188.443 32.376C187.75 32.888 186.886 33.144 185.851 33.144C185.009 33.144 184.251 32.9573 183.579 32.584C182.918 32.2 182.395 31.6667 182.011 30.984C181.638 30.2907 181.451 29.4907 181.451 28.584C181.451 27.6773 181.633 26.8827 181.995 26.2C182.369 25.5067 182.886 24.9733 183.547 24.6C184.219 24.2267 184.987 24.04 185.851 24.04C186.683 24.04 187.425 24.2213 188.075 24.584C188.726 24.9467 189.233 25.4587 189.595 26.12C189.958 26.7707 190.139 27.5227 190.139 28.376ZM188.235 27.8C188.225 27.128 187.985 26.5893 187.515 26.184C187.046 25.7787 186.465 25.576 185.771 25.576C185.142 25.576 184.603 25.7787 184.155 26.184C183.707 26.5787 183.441 27.1173 183.355 27.8H188.235ZM196.382 24.04C197.076 24.04 197.694 24.184 198.238 24.472C198.793 24.76 199.225 25.1867 199.534 25.752C199.844 26.3173 199.998 27 199.998 27.8V33H198.19V28.072C198.19 27.2827 197.993 26.68 197.598 26.264C197.204 25.8373 196.665 25.624 195.982 25.624C195.3 25.624 194.756 25.8373 194.35 26.264C193.956 26.68 193.758 27.2827 193.758 28.072V33H191.934V24.184H193.758V25.192C194.057 24.8293 194.436 24.5467 194.894 24.344C195.364 24.1413 195.86 24.04 196.382 24.04ZM201.717 28.584C201.717 27.6773 201.898 26.8827 202.261 26.2C202.634 25.5067 203.146 24.9733 203.797 24.6C204.448 24.2267 205.194 24.04 206.037 24.04C207.104 24.04 207.984 24.296 208.677 24.808C209.381 25.3093 209.856 26.0293 210.101 26.968H208.133C207.973 26.5307 207.717 26.1893 207.365 25.944C207.013 25.6987 206.57 25.576 206.037 25.576C205.29 25.576 204.693 25.8427 204.245 26.376C203.808 26.8987 203.589 27.6347 203.589 28.584C203.589 29.5333 203.808 30.2747 204.245 30.808C204.693 31.3413 205.29 31.608 206.037 31.608C207.093 31.608 207.792 31.144 208.133 30.216H210.101C209.845 31.112 209.365 31.8267 208.661 32.36C207.957 32.8827 207.082 33.144 206.037 33.144C205.194 33.144 204.448 32.9573 203.797 32.584C203.146 32.2 202.634 31.6667 202.261 30.984C201.898 30.2907 201.717 29.4907 201.717 28.584ZM219.999 28.376C219.999 28.7067 219.977 29.0053 219.935 29.272H213.199C213.252 29.976 213.513 30.5413 213.983 30.968C214.452 31.3947 215.028 31.608 215.711 31.608C216.692 31.608 217.385 31.1973 217.791 30.376H219.759C219.492 31.1867 219.007 31.8533 218.303 32.376C217.609 32.888 216.745 33.144 215.711 33.144C214.868 33.144 214.111 32.9573 213.439 32.584C212.777 32.2 212.255 31.6667 211.871 30.984C211.497 30.2907 211.311 29.4907 211.311 28.584C211.311 27.6773 211.492 26.8827 211.855 26.2C212.228 25.5067 212.745 24.9733 213.407 24.6C214.079 24.2267 214.847 24.04 215.711 24.04C216.543 24.04 217.284 24.2213 217.935 24.584C218.585 24.9467 219.092 25.4587 219.455 26.12C219.817 26.7707 219.999 27.5227 219.999 28.376ZM218.095 27.8C218.084 27.128 217.844 26.5893 217.375 26.184C216.905 25.7787 216.324 25.576 215.631 25.576C215.001 25.576 214.463 25.7787 214.015 26.184C213.567 26.5787 213.3 27.1173 213.215 27.8H218.095ZM228.078 25.672V30.552C228.078 30.8827 228.153 31.1227 228.302 31.272C228.462 31.4107 228.729 31.48 229.102 31.48H230.222V33H228.782C227.961 33 227.331 32.808 226.894 32.424C226.457 32.04 226.238 31.416 226.238 30.552V25.672H225.198V24.184H226.238V21.992H228.078V24.184H230.222V25.672H228.078ZM239.887 24.184V33H238.063V31.96C237.775 32.3227 237.396 32.6107 236.927 32.824C236.468 33.0267 235.978 33.128 235.455 33.128C234.762 33.128 234.138 32.984 233.583 32.696C233.039 32.408 232.607 31.9813 232.287 31.416C231.978 30.8507 231.823 30.168 231.823 29.368V24.184H233.631V29.096C233.631 29.8853 233.828 30.4933 234.223 30.92C234.618 31.336 235.156 31.544 235.839 31.544C236.522 31.544 237.06 31.336 237.455 30.92C237.86 30.4933 238.063 29.8853 238.063 29.096V24.184H239.887ZM244.422 25.672V30.552C244.422 30.8827 244.496 31.1227 244.646 31.272C244.806 31.4107 245.072 31.48 245.446 31.48H246.566V33H245.126C244.304 33 243.675 32.808 243.238 32.424C242.8 32.04 242.582 31.416 242.582 30.552V25.672H241.542V24.184H242.582V21.992H244.422V24.184H246.566V25.672H244.422ZM252.071 33.144C251.239 33.144 250.487 32.9573 249.815 32.584C249.143 32.2 248.615 31.6667 248.231 30.984C247.847 30.2907 247.655 29.4907 247.655 28.584C247.655 27.688 247.852 26.8933 248.247 26.2C248.642 25.5067 249.18 24.9733 249.863 24.6C250.546 24.2267 251.308 24.04 252.151 24.04C252.994 24.04 253.756 24.2267 254.439 24.6C255.122 24.9733 255.66 25.5067 256.055 26.2C256.45 26.8933 256.647 27.688 256.647 28.584C256.647 29.48 256.444 30.2747 256.039 30.968C255.634 31.6613 255.079 32.2 254.375 32.584C253.682 32.9573 252.914 33.144 252.071 33.144ZM252.071 31.56C252.54 31.56 252.978 31.448 253.383 31.224C253.799 31 254.135 30.664 254.391 30.216C254.647 29.768 254.775 29.224 254.775 28.584C254.775 27.944 254.652 27.4053 254.407 26.968C254.162 26.52 253.836 26.184 253.431 25.96C253.026 25.736 252.588 25.624 252.119 25.624C251.65 25.624 251.212 25.736 250.807 25.96C250.412 26.184 250.098 26.52 249.863 26.968C249.628 27.4053 249.511 27.944 249.511 28.584C249.511 29.5333 249.751 30.2693 250.231 30.792C250.722 31.304 251.335 31.56 252.071 31.56ZM260.274 25.464C260.541 25.016 260.893 24.6693 261.33 24.424C261.778 24.168 262.306 24.04 262.914 24.04V25.928H262.45C261.735 25.928 261.191 26.1093 260.818 26.472C260.455 26.8347 260.274 27.464 260.274 28.36V33H258.45V24.184H260.274V25.464ZM267.791 33.144C267.097 33.144 266.473 33.0213 265.919 32.776C265.375 32.52 264.943 32.1787 264.623 31.752C264.303 31.3147 264.132 30.8293 264.111 30.296H265.999C266.031 30.6693 266.207 30.984 266.527 31.24C266.857 31.4853 267.268 31.608 267.759 31.608C268.271 31.608 268.665 31.512 268.943 31.32C269.231 31.1173 269.375 30.8613 269.375 30.552C269.375 30.2213 269.215 29.976 268.895 29.816C268.585 29.656 268.089 29.48 267.407 29.288C266.745 29.1067 266.207 28.9307 265.791 28.76C265.375 28.5893 265.012 28.328 264.703 27.976C264.404 27.624 264.255 27.16 264.255 26.584C264.255 26.1147 264.393 25.688 264.671 25.304C264.948 24.9093 265.343 24.6 265.855 24.376C266.377 24.152 266.975 24.04 267.647 24.04C268.649 24.04 269.455 24.296 270.063 24.808C270.681 25.3093 271.012 25.9973 271.055 26.872H269.231C269.199 26.4773 269.039 26.1627 268.751 25.928C268.463 25.6933 268.073 25.576 267.583 25.576C267.103 25.576 266.735 25.6667 266.479 25.848C266.223 26.0293 266.095 26.2693 266.095 26.568C266.095 26.8027 266.18 27 266.351 27.16C266.521 27.32 266.729 27.448 266.975 27.544C267.22 27.6293 267.583 27.7413 268.063 27.88C268.703 28.0507 269.225 28.2267 269.631 28.408C270.047 28.5787 270.404 28.8347 270.703 29.176C271.001 29.5173 271.156 29.9707 271.167 30.536C271.167 31.0373 271.028 31.4853 270.751 31.88C270.473 32.2747 270.079 32.584 269.567 32.808C269.065 33.032 268.473 33.144 267.791 33.144Z" fill="white"/>
</svg>
