<svg width="126" height="26" viewBox="0 0 126 26" fill="none" xmlns="http://www.w3.org/2000/svg">
<path d="M37.5081 12.3985C36.3987 11.8438 35.8441 10.9692 35.8441 9.77451C35.8441 9.19851 35.9881 8.67051 36.2761 8.19051C36.5641 7.71051 36.9961 7.33184 37.5721 7.05451C38.1481 6.76651 38.8521 6.62251 39.6841 6.62251C40.5054 6.62251 41.2041 6.76651 41.7801 7.05451C42.3667 7.33184 42.8041 7.71051 43.0921 8.19051C43.3801 8.67051 43.5241 9.19851 43.5241 9.77451C43.5241 10.3718 43.3694 10.8998 43.0601 11.3585C42.7614 11.8065 42.3614 12.1532 41.8601 12.3985C42.4681 12.6225 42.9481 12.9905 43.3001 13.5025C43.6521 14.0038 43.8281 14.5958 43.8281 15.2785C43.8281 15.9718 43.6521 16.5852 43.3001 17.1185C42.9481 17.6518 42.4574 18.0625 41.8281 18.3505C41.1987 18.6385 40.4841 18.7825 39.6841 18.7825C38.8841 18.7825 38.1694 18.6385 37.5401 18.3505C36.9214 18.0625 36.4361 17.6518 36.0841 17.1185C35.7321 16.5852 35.5561 15.9718 35.5561 15.2785C35.5561 14.5852 35.7321 13.9878 36.0841 13.4865C36.4361 12.9852 36.9107 12.6225 37.5081 12.3985ZM41.7801 9.99851C41.7801 9.40117 41.5934 8.94251 41.2201 8.62251C40.8467 8.30251 40.3347 8.14251 39.6841 8.14251C39.0441 8.14251 38.5374 8.30251 38.1641 8.62251C37.7907 8.94251 37.6041 9.40651 37.6041 10.0145C37.6041 10.5478 37.7961 10.9852 38.1801 11.3265C38.5747 11.6572 39.0761 11.8225 39.6841 11.8225C40.2921 11.8225 40.7934 11.6518 41.1881 11.3105C41.5827 10.9692 41.7801 10.5318 41.7801 9.99851ZM39.6841 13.1985C38.9801 13.1985 38.4041 13.3745 37.9561 13.7265C37.5187 14.0678 37.3001 14.5638 37.3001 15.2145C37.3001 15.8225 37.5134 16.3185 37.9401 16.7025C38.3667 17.0758 38.9481 17.2625 39.6841 17.2625C40.4094 17.2625 40.9801 17.0705 41.3961 16.6865C41.8227 16.3025 42.0361 15.8118 42.0361 15.2145C42.0361 14.5745 41.8174 14.0785 41.3801 13.7265C40.9534 13.3745 40.3881 13.1985 39.6841 13.1985ZM54.6995 9.53451C55.3715 9.53451 55.9688 9.67851 56.4915 9.96651C57.0248 10.2545 57.4408 10.6812 57.7395 11.2465C58.0488 11.8118 58.2035 12.4945 58.2035 13.2945V18.4945H56.3955V13.5665C56.3955 12.7772 56.1981 12.1745 55.8035 11.7585C55.4088 11.3318 54.8701 11.1185 54.1875 11.1185C53.5048 11.1185 52.9608 11.3318 52.5555 11.7585C52.1608 12.1745 51.9635 12.7772 51.9635 13.5665V18.4945H50.1395V6.65451H51.9635V10.7025C52.2728 10.3292 52.6621 10.0412 53.1315 9.83851C53.6115 9.63584 54.1341 9.53451 54.6995 9.53451ZM62.3541 10.9585C62.6207 10.5105 62.9727 10.1638 63.4101 9.91851C63.8581 9.66251 64.3861 9.53451 64.9941 9.53451V11.4225H64.5301C63.8154 11.4225 63.2714 11.6038 62.8981 11.9665C62.5354 12.3292 62.3541 12.9585 62.3541 13.8545V18.4945H60.5301V9.67851H62.3541V10.9585ZM70.555 9.71051C70.619 8.71851 70.9976 7.94517 71.691 7.39051C72.395 6.83584 73.291 6.55851 74.379 6.55851C75.1256 6.55851 75.771 6.69184 76.315 6.95851C76.859 7.22517 77.2696 7.58784 77.547 8.04651C77.8243 8.50517 77.963 9.02251 77.963 9.59851C77.963 10.2598 77.787 10.8252 77.435 11.2945C77.083 11.7638 76.6616 12.0785 76.171 12.2385V12.3025C76.8003 12.4945 77.291 12.8465 77.643 13.3585C77.995 13.8598 78.171 14.5052 78.171 15.2945C78.171 15.9238 78.027 16.4838 77.739 16.9745C77.451 17.4652 77.0243 17.8545 76.459 18.1425C75.8936 18.4198 75.2163 18.5585 74.427 18.5585C73.275 18.5585 72.3256 18.2652 71.579 17.6785C70.843 17.0812 70.4483 16.2278 70.395 15.1185H72.155C72.1976 15.6838 72.4163 16.1478 72.811 16.5105C73.2056 16.8625 73.739 17.0385 74.411 17.0385C75.0616 17.0385 75.563 16.8625 75.915 16.5105C76.267 16.1478 76.443 15.6838 76.443 15.1185C76.443 14.3718 76.203 13.8438 75.723 13.5345C75.2536 13.2145 74.5283 13.0545 73.547 13.0545H73.131V11.5505H73.563C74.427 11.5398 75.083 11.3958 75.531 11.1185C75.9896 10.8412 76.219 10.4038 76.219 9.80651C76.219 9.29451 76.0536 8.88917 75.723 8.59051C75.3923 8.28117 74.923 8.12651 74.315 8.12651C73.7176 8.12651 73.2536 8.28117 72.923 8.59051C72.5923 8.88917 72.395 9.26251 72.331 9.71051H70.555ZM80.087 12.5105C80.087 10.6652 80.3963 9.22517 81.015 8.19051C81.6443 7.14517 82.7216 6.62251 84.247 6.62251C85.7723 6.62251 86.8443 7.14517 87.463 8.19051C88.0923 9.22517 88.407 10.6652 88.407 12.5105C88.407 14.3772 88.0923 15.8385 87.463 16.8945C86.8443 17.9398 85.7723 18.4625 84.247 18.4625C82.7216 18.4625 81.6443 17.9398 81.015 16.8945C80.3963 15.8385 80.087 14.3772 80.087 12.5105ZM86.615 12.5105C86.615 11.6465 86.5563 10.9158 86.439 10.3185C86.3323 9.72117 86.1083 9.23584 85.767 8.86251C85.4256 8.47851 84.919 8.28651 84.247 8.28651C83.575 8.28651 83.0683 8.47851 82.727 8.86251C82.3856 9.23584 82.1563 9.72117 82.039 10.3185C81.9323 10.9158 81.879 11.6465 81.879 12.5105C81.879 13.4065 81.9323 14.1585 82.039 14.7665C82.1456 15.3745 82.3696 15.8652 82.711 16.2385C83.063 16.6118 83.575 16.7985 84.247 16.7985C84.919 16.7985 85.4256 16.6118 85.767 16.2385C86.119 15.8652 86.3483 15.3745 86.455 14.7665C86.5616 14.1585 86.615 13.4065 86.615 12.5105ZM105.405 9.53451C106.099 9.53451 106.717 9.67851 107.261 9.96651C107.816 10.2545 108.248 10.6812 108.557 11.2465C108.877 11.8118 109.037 12.4945 109.037 13.2945V18.4945H107.229V13.5665C107.229 12.7772 107.032 12.1745 106.637 11.7585C106.243 11.3318 105.704 11.1185 105.021 11.1185C104.339 11.1185 103.795 11.3318 103.389 11.7585C102.995 12.1745 102.797 12.7772 102.797 13.5665V18.4945H100.989V13.5665C100.989 12.7772 100.792 12.1745 100.397 11.7585C100.003 11.3318 99.4639 11.1185 98.7812 11.1185C98.0985 11.1185 97.5545 11.3318 97.1492 11.7585C96.7545 12.1745 96.5572 12.7772 96.5572 13.5665V18.4945H94.7332V9.67851H96.5572V10.6865C96.8559 10.3238 97.2345 10.0412 97.6932 9.83851C98.1519 9.63584 98.6425 9.53451 99.1652 9.53451C99.8692 9.53451 100.499 9.68384 101.053 9.98251C101.608 10.2812 102.035 10.7132 102.333 11.2785C102.6 10.7452 103.016 10.3238 103.581 10.0145C104.147 9.69451 104.755 9.53451 105.405 9.53451ZM112.286 8.51051C111.956 8.51051 111.678 8.39851 111.454 8.17451C111.23 7.95051 111.118 7.67317 111.118 7.34251C111.118 7.01184 111.23 6.73451 111.454 6.51051C111.678 6.28651 111.956 6.17451 112.286 6.17451C112.606 6.17451 112.878 6.28651 113.102 6.51051C113.326 6.73451 113.438 7.01184 113.438 7.34251C113.438 7.67317 113.326 7.95051 113.102 8.17451C112.878 8.39851 112.606 8.51051 112.286 8.51051ZM113.182 9.67851V18.4945H111.358V9.67851H113.182ZM120.025 9.53451C120.718 9.53451 121.337 9.67851 121.881 9.96651C122.436 10.2545 122.868 10.6812 123.177 11.2465C123.486 11.8118 123.641 12.4945 123.641 13.2945V18.4945H121.833V13.5665C121.833 12.7772 121.636 12.1745 121.241 11.7585C120.846 11.3318 120.308 11.1185 119.625 11.1185C118.942 11.1185 118.398 11.3318 117.993 11.7585C117.598 12.1745 117.401 12.7772 117.401 13.5665V18.4945H115.577V9.67851H117.401V10.6865C117.7 10.3238 118.078 10.0412 118.537 9.83851C119.006 9.63584 119.502 9.53451 120.025 9.53451Z" fill="#515151"/>
<path d="M23.6049 13.4945C23.6049 7.40554 18.6689 2.46948 12.5799 2.46948C6.49099 2.46948 1.55493 7.40554 1.55493 13.4945C1.55493 19.5834 6.49099 24.5195 12.5799 24.5195C18.6689 24.5195 23.6049 19.5834 23.6049 13.4945Z" stroke="#FFD600" stroke-width="1.5" stroke-miterlimit="10"/>
<path d="M11.7837 7.12842V14.9494L17.0798 17.9944" stroke="#FFD600" stroke-width="1.5" stroke-linecap="round" stroke-linejoin="round"/>
</svg>
